<svg xmlns="http://www.w3.org/2000/svg" xmlns:xlink="http://www.w3.org/1999/xlink" width="736.50" zoomAndPan="magnify" viewBox="6.75 302.25 736.50 146.25" height="146.25" preserveAspectRatio="xMidYMid meet" version="1.0"><defs><clipPath id="a0a88e30f6"><path d="M 30.644531 307.207031 L 65.28125 307.207031 L 65.28125 392 L 30.644531 392 Z M 30.644531 307.207031 " clip-rule="nonzero"></path></clipPath><clipPath id="6ebb128f78"><path d="M 31.511719 366.484375 C 35.882812 352.175781 55.507812 338.039062 59.878906 323.730469 C 61.566406 318.183594 60.953125 312.867188 57.144531 307.578125 C 64.964844 314.425781 66.394531 321.25 64.351562 327.972656 C 60.082031 342.003906 40.8125 355.929688 36.546875 369.960938 C 34.324219 377.269531 35.957031 384.476562 45.515625 391.863281 C 31.867188 383.226562 28.957031 374.996094 31.535156 366.511719 " clip-rule="nonzero"></path></clipPath><clipPath id="762be4dc11"><path d="M 0.644531 0.441406 L 35.28125 0.441406 L 35.28125 84.921875 L 0.644531 84.921875 Z M 0.644531 0.441406 " clip-rule="nonzero"></path></clipPath><clipPath id="72261dfb6c"><path d="M 1.511719 59.484375 C 5.882812 45.175781 25.507812 31.039062 29.878906 16.730469 C 31.566406 11.183594 30.953125 5.867188 27.144531 0.578125 C 34.964844 7.425781 36.394531 14.25 34.351562 20.972656 C 30.082031 35.003906 10.8125 48.929688 6.546875 62.960938 C 4.324219 70.269531 5.957031 77.476562 15.515625 84.863281 C 1.867188 76.226562 -1.042969 67.996094 1.535156 59.511719 " clip-rule="nonzero"></path></clipPath><clipPath id="753b61e2ef"><rect x="0" width="36" y="0" height="85"></rect></clipPath><clipPath id="c838761005"><path d="M 52 358.28125 L 73 358.28125 L 73 442.660156 L 52 442.660156 Z M 52 358.28125 " clip-rule="nonzero"></path></clipPath><clipPath id="ba068a09b9"><path d="M 52.109375 422.277344 C 52.109375 407.300781 66.78125 388.054688 66.78125 373.105469 C 66.78125 367.304688 64.632812 362.421875 59.445312 358.433594 C 68.902344 362.703125 72.273438 368.8125 72.273438 375.839844 C 72.273438 390.507812 57.910156 409.445312 57.910156 424.089844 C 57.910156 431.730469 61.566406 438.148438 72.886719 442.414062 C 57.324219 438.148438 52.109375 431.117188 52.109375 422.25 " clip-rule="nonzero"></path></clipPath><clipPath id="2bc5873cc5"><path d="M 0.078125 0.320312 L 20.960938 0.320312 L 20.960938 84.558594 L 0.078125 84.558594 Z M 0.078125 0.320312 " clip-rule="nonzero"></path></clipPath><clipPath id="c0e1730a5e"><path d="M 0.109375 64.277344 C 0.109375 49.300781 14.78125 30.054688 14.78125 15.105469 C 14.78125 9.304688 12.632812 4.421875 7.445312 0.433594 C 16.902344 4.703125 20.273438 10.8125 20.273438 17.839844 C 20.273438 32.507812 5.910156 51.445312 5.910156 66.089844 C 5.910156 73.730469 9.566406 80.148438 20.886719 84.414062 C 5.324219 80.148438 0.109375 73.117188 0.109375 64.25 " clip-rule="nonzero"></path></clipPath><clipPath id="3425210102"><rect x="0" width="21" y="0" height="85"></rect></clipPath><clipPath id="a964b67be7"><path d="M 65 356.058594 L 101 356.058594 L 101 428 L 65 428 Z M 65 356.058594 " clip-rule="nonzero"></path></clipPath><clipPath id="82a27d91f5"><path d="M 65.167969 427.566406 C 75.953125 423.734375 88.144531 412.003906 92.976562 397.5625 C 97.832031 383.019531 95.328125 365.71875 89.039062 356.085938 C 100.386719 367.507812 103.632812 384.296875 98.675781 399.121094 C 93.714844 413.945312 81.117188 425.242188 65.167969 427.566406 " clip-rule="nonzero"></path></clipPath><clipPath id="3ad23b8fef"><path d="M 0.0390625 0.0585938 L 36 0.0585938 L 36 71.679688 L 0.0390625 71.679688 Z M 0.0390625 0.0585938 " clip-rule="nonzero"></path></clipPath><clipPath id="7d3e33c547"><path d="M 0.167969 71.566406 C 10.953125 67.734375 23.144531 56.003906 27.976562 41.5625 C 32.832031 27.019531 30.328125 9.71875 24.039062 0.0859375 C 35.386719 11.507812 38.632812 28.296875 33.675781 43.121094 C 28.714844 57.945312 16.117188 69.242188 0.167969 71.566406 " clip-rule="nonzero"></path></clipPath><clipPath id="573556a0ac"><rect x="0" width="36" y="0" height="72"></rect></clipPath><clipPath id="9a2a308118"><path d="M 12.433594 356.058594 L 48.851562 356.058594 L 48.851562 428 L 12.433594 428 Z M 12.433594 356.058594 " clip-rule="nonzero"></path></clipPath><clipPath id="ec1cab7668"><path d="M 48.53125 427.566406 C 32.585938 425.242188 19.984375 413.96875 15.027344 399.148438 C 10.070312 384.324219 13.316406 367.507812 24.664062 356.085938 C 18.375 365.71875 15.871094 383.019531 20.726562 397.5625 C 25.558594 412.003906 37.746094 423.734375 48.53125 427.566406 " clip-rule="nonzero"></path></clipPath><clipPath id="39a93a792f"><path d="M 0.433594 0.0585938 L 36.71875 0.0585938 L 36.71875 71.679688 L 0.433594 71.679688 Z M 0.433594 0.0585938 " clip-rule="nonzero"></path></clipPath><clipPath id="aefc2d69da"><path d="M 36.53125 71.566406 C 20.585938 69.242188 7.984375 57.96875 3.027344 43.148438 C -1.929688 28.324219 1.316406 11.507812 12.664062 0.0859375 C 6.375 9.71875 3.871094 27.019531 8.726562 41.5625 C 13.558594 56.003906 25.746094 67.734375 36.53125 71.566406 " clip-rule="nonzero"></path></clipPath><clipPath id="aed3a60f26"><rect x="0" width="37" y="0" height="72"></rect></clipPath><clipPath id="96f5629267"><path d="M 132.105469 350 L 192.472656 350 L 192.472656 426.929688 L 132.105469 426.929688 Z M 132.105469 350 " clip-rule="nonzero"></path></clipPath><clipPath id="0f1a38c251"><path d="M 163.449219 382.132812 C 152.257812 378.707031 141.675781 375.460938 141.675781 367.15625 C 141.675781 358.570312 152.207031 353.457031 162.375 353.457031 C 171.246094 353.457031 182.386719 357.546875 184.636719 369.097656 L 185.300781 372.574219 L 185.453125 369.046875 C 185.632812 364.957031 184.226562 361.328125 181.261719 358.238281 C 176.535156 353.253906 167.820312 350.160156 158.570312 350.160156 C 145.917969 350.160156 133.113281 356.191406 133.113281 369.636719 C 133.113281 383.769531 147.9375 389.160156 161.023438 393.914062 C 172.113281 397.953125 182.59375 401.757812 182.59375 410.117188 C 182.59375 419.113281 170.527344 423.816406 158.59375 423.816406 C 149.265625 423.816406 141.140625 420.976562 136.847656 416.25 C 134.164062 413.261719 133.011719 409.632812 133.445312 405.414062 L 132.628906 405.285156 C 132.320312 406.640625 132.117188 407.816406 132.117188 409.09375 C 132.117188 414.460938 135.3125 419.035156 141.394531 422.332031 C 146.761719 425.246094 154.148438 426.90625 161.710938 426.90625 C 169.761719 426.90625 177.226562 425.09375 182.71875 421.820312 C 189.082031 418.039062 192.429688 412.46875 192.429688 405.773438 C 192.429688 390.949219 177.070312 386.246094 163.5 382.105469 " clip-rule="nonzero"></path></clipPath><clipPath id="5fbc42fad6"><path d="M 0.105469 0.160156 L 60.472656 0.160156 L 60.472656 76.929688 L 0.105469 76.929688 Z M 0.105469 0.160156 " clip-rule="nonzero"></path></clipPath><clipPath id="7791196d78"><path d="M 31.449219 32.132812 C 20.257812 28.707031 9.675781 25.460938 9.675781 17.15625 C 9.675781 8.570312 20.207031 3.457031 30.375 3.457031 C 39.246094 3.457031 50.386719 7.546875 52.636719 19.097656 L 53.300781 22.574219 L 53.453125 19.046875 C 53.632812 14.957031 52.226562 11.328125 49.261719 8.238281 C 44.535156 3.253906 35.820312 0.160156 26.570312 0.160156 C 13.917969 0.160156 1.113281 6.191406 1.113281 19.636719 C 1.113281 33.769531 15.9375 39.160156 29.023438 43.914062 C 40.113281 47.953125 50.59375 51.757812 50.59375 60.117188 C 50.59375 69.113281 38.527344 73.816406 26.59375 73.816406 C 17.265625 73.816406 9.140625 70.976562 4.847656 66.25 C 2.164062 63.261719 1.011719 59.632812 1.445312 55.414062 L 0.628906 55.285156 C 0.320312 56.640625 0.117188 57.816406 0.117188 59.09375 C 0.117188 64.460938 3.3125 69.035156 9.394531 72.332031 C 14.761719 75.246094 22.148438 76.90625 29.710938 76.90625 C 37.761719 76.90625 45.226562 75.09375 50.71875 71.820312 C 57.082031 68.039062 60.429688 62.46875 60.429688 55.773438 C 60.429688 40.949219 45.070312 36.246094 31.5 32.105469 " clip-rule="nonzero"></path></clipPath><clipPath id="9d46d44224"><rect x="0" width="61" y="0" height="77"></rect></clipPath><clipPath id="61d5c98587"><path d="M 200.46875 371 L 262 371 L 262 425.730469 L 200.46875 425.730469 Z M 200.46875 371 " clip-rule="nonzero"></path></clipPath><clipPath id="c597058554"><path d="M 253.816406 421.976562 C 250.75 421.976562 250.113281 417.988281 250.113281 414.664062 L 250.113281 398.691406 C 250.113281 384.355469 247.300781 371.066406 226.804688 371.066406 C 217.347656 371.066406 208.890625 377.480469 206.71875 386.324219 L 207.101562 386.425781 L 206.71875 386.425781 C 206.71875 386.476562 206.691406 386.554688 206.691406 386.628906 C 206.667969 386.757812 206.613281 386.886719 206.613281 387.039062 L 207.457031 387.039062 C 207.457031 386.988281 207.484375 386.910156 207.484375 386.835938 C 207.484375 386.757812 207.535156 386.605469 207.535156 386.476562 C 210.296875 376.484375 221.132812 373.851562 226.5 373.851562 C 232.886719 373.851562 236.773438 376.203125 238.738281 381.289062 C 240.503906 385.863281 240.503906 391.972656 240.503906 398.410156 L 240.503906 399.972656 C 236.386719 395.140625 229.972656 392.40625 222.691406 392.40625 C 207.457031 392.40625 200.636719 401.144531 200.636719 409.835938 C 200.636719 417.527344 206.230469 425.707031 216.609375 425.707031 C 224.503906 425.707031 233.476562 420.902344 240.015625 413.183594 L 239.429688 412.59375 C 232.453125 418.347656 226.445312 421.257812 221.566406 421.257812 C 214.050781 421.257812 210.140625 414.894531 210.140625 408.582031 C 210.140625 401.605469 214.894531 394.578125 225.5 394.578125 C 231.355469 394.578125 236.976562 397.59375 240.527344 402.628906 L 240.527344 414.972656 C 240.527344 422.511719 245.640625 425.167969 250.011719 425.167969 C 254.277344 425.167969 258.265625 422.921875 260.359375 419.292969 L 261.996094 416.480469 L 259.722656 418.78125 C 257.753906 420.75 255.503906 421.949219 253.84375 421.949219 " clip-rule="nonzero"></path></clipPath><clipPath id="757cc78cee"><path d="M 0.46875 0.0390625 L 62 0.0390625 L 62 54.730469 L 0.46875 54.730469 Z M 0.46875 0.0390625 " clip-rule="nonzero"></path></clipPath><clipPath id="b6aac942e3"><path d="M 53.816406 50.976562 C 50.75 50.976562 50.113281 46.988281 50.113281 43.664062 L 50.113281 27.691406 C 50.113281 13.355469 47.300781 0.0664062 26.804688 0.0664062 C 17.347656 0.0664062 8.890625 6.480469 6.71875 15.324219 L 7.101562 15.425781 L 6.71875 15.425781 C 6.71875 15.476562 6.691406 15.554688 6.691406 15.628906 C 6.667969 15.757812 6.613281 15.886719 6.613281 16.039062 L 7.457031 16.039062 C 7.457031 15.988281 7.484375 15.910156 7.484375 15.835938 C 7.484375 15.757812 7.535156 15.605469 7.535156 15.476562 C 10.296875 5.484375 21.132812 2.851562 26.5 2.851562 C 32.886719 2.851562 36.773438 5.203125 38.738281 10.289062 C 40.503906 14.863281 40.503906 20.972656 40.503906 27.410156 L 40.503906 28.972656 C 36.386719 24.140625 29.972656 21.40625 22.691406 21.40625 C 7.457031 21.40625 0.636719 30.144531 0.636719 38.835938 C 0.636719 46.527344 6.230469 54.707031 16.609375 54.707031 C 24.503906 54.707031 33.476562 49.902344 40.015625 42.183594 L 39.429688 41.59375 C 32.453125 47.347656 26.445312 50.257812 21.566406 50.257812 C 14.050781 50.257812 10.140625 43.894531 10.140625 37.582031 C 10.140625 30.605469 14.894531 23.578125 25.5 23.578125 C 31.355469 23.578125 36.976562 26.59375 40.527344 31.628906 L 40.527344 43.972656 C 40.527344 51.511719 45.640625 54.167969 50.011719 54.167969 C 54.277344 54.167969 58.265625 51.921875 60.359375 48.292969 L 61.996094 45.480469 L 59.722656 47.78125 C 57.753906 49.75 55.503906 50.949219 53.84375 50.949219 " clip-rule="nonzero"></path></clipPath><clipPath id="c1cd338bca"><rect x="0" width="62" y="0" height="55"></rect></clipPath><clipPath id="b220d5e16a"><path d="M 262.429688 372.164062 L 322.398438 372.164062 L 322.398438 425.730469 L 262.429688 425.730469 Z M 262.429688 372.164062 " clip-rule="nonzero"></path></clipPath><clipPath id="8bdaa6d8ba"><path d="M 314.105469 421.976562 C 311.730469 421.976562 310.398438 419.367188 310.398438 414.664062 L 310.398438 372.214844 L 300.6875 372.214844 L 300.6875 413.695312 L 299.792969 415.636719 C 297.800781 419.980469 293.636719 422.078125 287.09375 422.078125 C 273.957031 422.078125 272.167969 409.707031 272.167969 396.316406 L 272.167969 372.214844 L 262.558594 372.214844 L 262.558594 394.476562 C 262.558594 406.871094 262.558594 425.605469 286.171875 425.605469 C 292.128906 425.605469 299.207031 422.203125 300.585938 415.890625 L 300.6875 415.40625 C 300.894531 422.613281 305.875 425.167969 310.171875 425.167969 C 314.464844 425.167969 318.550781 422.871094 320.621094 419.292969 L 322.257812 416.480469 L 319.984375 418.78125 C 318.015625 420.75 315.765625 421.949219 314.105469 421.949219 " clip-rule="nonzero"></path></clipPath><clipPath id="92181ab4a3"><path d="M 0.429688 0.164062 L 60.320312 0.164062 L 60.320312 53.730469 L 0.429688 53.730469 Z M 0.429688 0.164062 " clip-rule="nonzero"></path></clipPath><clipPath id="cd24181330"><path d="M 52.105469 49.976562 C 49.730469 49.976562 48.398438 47.367188 48.398438 42.664062 L 48.398438 0.214844 L 38.6875 0.214844 L 38.6875 41.695312 L 37.792969 43.636719 C 35.800781 47.980469 31.636719 50.078125 25.09375 50.078125 C 11.957031 50.078125 10.167969 37.707031 10.167969 24.316406 L 10.167969 0.214844 L 0.558594 0.214844 L 0.558594 22.476562 C 0.558594 34.871094 0.558594 53.605469 24.171875 53.605469 C 30.128906 53.605469 37.207031 50.203125 38.585938 43.890625 L 38.6875 43.40625 C 38.894531 50.613281 43.875 53.167969 48.171875 53.167969 C 52.464844 53.167969 56.550781 50.871094 58.621094 47.292969 L 60.257812 44.480469 L 57.984375 46.78125 C 56.015625 48.75 53.765625 49.949219 52.105469 49.949219 " clip-rule="nonzero"></path></clipPath><clipPath id="db58657bf6"><rect x="0" width="61" y="0" height="54"></rect></clipPath><clipPath id="0d0f76301e"><path d="M 327.804688 372.214844 L 337.515625 372.214844 L 337.515625 424.582031 L 327.804688 424.582031 Z M 327.804688 372.214844 " clip-rule="nonzero"></path></clipPath><clipPath id="37bdda7fd7"><path d="M 0.804688 0.214844 L 10.515625 0.214844 L 10.515625 52.582031 L 0.804688 52.582031 Z M 0.804688 0.214844 " clip-rule="nonzero"></path></clipPath><clipPath id="0a26a9bbca"><rect x="0" width="11" y="0" height="53"></rect></clipPath><clipPath id="527e92aaef"><path d="M 337.589844 371 L 388.359375 371 L 388.359375 425.332031 L 337.589844 425.332031 Z M 337.589844 371 " clip-rule="nonzero"></path></clipPath><clipPath id="e17f89c41f"><path d="M 379.964844 421.976562 C 376.898438 421.976562 376.257812 417.988281 376.257812 414.664062 L 376.257812 404.085938 C 376.285156 394.449219 376.285156 383.511719 369.742188 376.945312 C 365.882812 373.085938 360.261719 371.195312 352.542969 371.195312 C 347.429688 371.195312 340.839844 372.855469 337.667969 377.558594 L 338.332031 378.070312 C 339.253906 376.996094 342.089844 373.773438 351.621094 373.773438 C 366.523438 373.773438 366.546875 390.921875 366.546875 402.269531 C 366.546875 403.113281 366.546875 403.933594 366.546875 404.671875 L 366.546875 414.972656 C 366.546875 422.511719 371.660156 425.167969 376.03125 425.167969 C 380.296875 425.167969 384.410156 422.871094 386.480469 419.292969 L 388.117188 416.480469 L 385.816406 418.78125 C 383.851562 420.75 381.601562 421.949219 379.941406 421.949219 " clip-rule="nonzero"></path></clipPath><clipPath id="c272c999d9"><path d="M 0.589844 0.0390625 L 51.320312 0.0390625 L 51.320312 54.28125 L 0.589844 54.28125 Z M 0.589844 0.0390625 " clip-rule="nonzero"></path></clipPath><clipPath id="18c65f8f0a"><path d="M 42.964844 50.976562 C 39.898438 50.976562 39.257812 46.988281 39.257812 43.664062 L 39.257812 33.085938 C 39.285156 23.449219 39.285156 12.511719 32.742188 5.945312 C 28.882812 2.085938 23.261719 0.195312 15.542969 0.195312 C 10.429688 0.195312 3.839844 1.855469 0.667969 6.558594 L 1.332031 7.070312 C 2.253906 5.996094 5.089844 2.773438 14.621094 2.773438 C 29.523438 2.773438 29.546875 19.921875 29.546875 31.269531 C 29.546875 32.113281 29.546875 32.933594 29.546875 33.671875 L 29.546875 43.972656 C 29.546875 51.511719 34.660156 54.167969 39.03125 54.167969 C 43.296875 54.167969 47.410156 51.871094 49.480469 48.292969 L 51.117188 45.480469 L 48.816406 47.78125 C 46.851562 49.75 44.601562 50.949219 42.941406 50.949219 " clip-rule="nonzero"></path></clipPath><clipPath id="29cd4a14a6"><rect x="0" width="52" y="0" height="55"></rect></clipPath><clipPath id="2b74289b0c"><path d="M 388 371 L 449.921875 371 L 449.921875 425.730469 L 388 425.730469 Z M 388 371 " clip-rule="nonzero"></path></clipPath><clipPath id="e7b9c830dd"><path d="M 441.480469 421.976562 C 438.414062 421.976562 437.773438 417.988281 437.773438 414.664062 L 437.773438 398.691406 C 437.773438 384.355469 434.960938 371.066406 414.464844 371.066406 C 405.011719 371.066406 396.550781 377.480469 394.378906 386.324219 L 394.761719 386.425781 L 394.351562 386.425781 C 394.351562 386.476562 394.328125 386.554688 394.300781 386.628906 C 394.277344 386.757812 394.226562 386.886719 394.226562 387.039062 L 395.070312 387.039062 C 395.070312 386.988281 395.09375 386.910156 395.09375 386.835938 C 395.09375 386.757812 395.144531 386.605469 395.171875 386.476562 C 397.929688 376.484375 408.765625 373.851562 414.132812 373.851562 C 420.523438 373.851562 424.40625 376.203125 426.375 381.289062 C 428.140625 385.863281 428.140625 391.972656 428.140625 398.410156 L 428.140625 399.972656 C 424.023438 395.140625 417.609375 392.40625 410.328125 392.40625 C 395.09375 392.40625 388.269531 401.144531 388.269531 409.835938 C 388.269531 417.527344 393.867188 425.707031 404.242188 425.707031 C 412.140625 425.707031 421.109375 420.902344 427.652344 413.183594 L 427.066406 412.59375 C 420.089844 418.347656 414.082031 421.257812 409.203125 421.257812 C 401.6875 421.257812 397.777344 414.894531 397.777344 408.582031 C 397.777344 401.605469 402.53125 394.578125 413.113281 394.578125 C 418.964844 394.578125 424.585938 397.59375 428.164062 402.628906 L 428.164062 414.972656 C 428.164062 422.511719 433.277344 425.167969 437.644531 425.167969 C 441.914062 425.167969 445.902344 422.921875 447.996094 419.292969 L 449.632812 416.503906 L 447.332031 418.804688 C 445.363281 420.773438 443.117188 421.976562 441.453125 421.976562 " clip-rule="nonzero"></path></clipPath><clipPath id="41628e9d88"><path d="M 0.078125 0.0390625 L 61.761719 0.0390625 L 61.761719 54.730469 L 0.078125 54.730469 Z M 0.078125 0.0390625 " clip-rule="nonzero"></path></clipPath><clipPath id="18b48b7aa2"><path d="M 53.480469 50.976562 C 50.414062 50.976562 49.773438 46.988281 49.773438 43.664062 L 49.773438 27.691406 C 49.773438 13.355469 46.960938 0.0664062 26.464844 0.0664062 C 17.011719 0.0664062 8.550781 6.480469 6.378906 15.324219 L 6.761719 15.425781 L 6.351562 15.425781 C 6.351562 15.476562 6.328125 15.554688 6.300781 15.628906 C 6.277344 15.757812 6.226562 15.886719 6.226562 16.039062 L 7.070312 16.039062 C 7.070312 15.988281 7.09375 15.910156 7.09375 15.835938 C 7.09375 15.757812 7.144531 15.605469 7.171875 15.476562 C 9.929688 5.484375 20.765625 2.851562 26.132812 2.851562 C 32.523438 2.851562 36.40625 5.203125 38.375 10.289062 C 40.140625 14.863281 40.140625 20.972656 40.140625 27.410156 L 40.140625 28.972656 C 36.023438 24.140625 29.609375 21.40625 22.328125 21.40625 C 7.09375 21.40625 0.269531 30.144531 0.269531 38.835938 C 0.269531 46.527344 5.867188 54.707031 16.242188 54.707031 C 24.140625 54.707031 33.109375 49.902344 39.652344 42.183594 L 39.066406 41.59375 C 32.089844 47.347656 26.082031 50.257812 21.203125 50.257812 C 13.6875 50.257812 9.777344 43.894531 9.777344 37.582031 C 9.777344 30.605469 14.53125 23.578125 25.113281 23.578125 C 30.964844 23.578125 36.585938 26.59375 40.164062 31.628906 L 40.164062 43.972656 C 40.164062 51.511719 45.277344 54.167969 49.644531 54.167969 C 53.914062 54.167969 57.902344 51.921875 59.996094 48.292969 L 61.632812 45.503906 L 59.332031 47.804688 C 57.363281 49.773438 55.117188 50.976562 53.453125 50.976562 " clip-rule="nonzero"></path></clipPath><clipPath id="ac42cc5d97"><rect x="0" width="62" y="0" height="55"></rect></clipPath><clipPath id="6f85d98325"><path d="M 479.046875 375.410156 L 482.753906 375.410156 L 482.753906 393.660156 L 479.046875 393.660156 Z M 458.652344 393.660156 L 503.148438 393.660156 L 503.148438 397.464844 L 458.652344 397.464844 Z M 479.046875 397.464844 L 482.753906 397.464844 L 482.753906 415.714844 L 479.046875 415.714844 Z M 479.046875 397.464844 " clip-rule="nonzero"></path></clipPath><clipPath id="8a1afa960f"><path d="M 21.046875 0.410156 L 24.753906 0.410156 L 24.753906 18.660156 L 21.046875 18.660156 Z M 0.652344 18.660156 L 45.148438 18.660156 L 45.148438 22.464844 L 0.652344 22.464844 Z M 21.046875 22.464844 L 24.753906 22.464844 L 24.753906 40.714844 L 21.046875 40.714844 Z M 21.046875 22.464844 " clip-rule="nonzero"></path></clipPath><clipPath id="260af6f198"><rect x="0" width="46" y="0" height="41"></rect></clipPath><clipPath id="72d5e9a4f6"><path d="M 535.074219 386 L 566 386 L 566 394 L 535.074219 394 Z M 535.074219 386 " clip-rule="nonzero"></path></clipPath><clipPath id="ba9ac22441"><path d="M 559.039062 391.28125 C 556.613281 391.28125 553.699219 390.027344 550.914062 388.855469 C 548.050781 387.625 545.058594 386.347656 542.453125 386.347656 C 538.902344 386.347656 536.625 388.675781 535.246094 393.660156 L 536.039062 393.914062 C 537.265625 390.644531 539.105469 389.132812 541.839844 389.132812 C 544.21875 389.132812 547.078125 390.363281 549.8125 391.511719 C 552.625 392.710938 555.5625 393.964844 558.121094 393.964844 C 560.929688 393.964844 562.976562 392.457031 564.382812 389.390625 L 565.890625 386.066406 L 563.664062 388.957031 C 562.464844 390.539062 561.007812 391.257812 559.039062 391.257812 " clip-rule="nonzero"></path></clipPath><clipPath id="756077b550"><path d="M 0.199219 0 L 30.921875 0 L 30.921875 8 L 0.199219 8 Z M 0.199219 0 " clip-rule="nonzero"></path></clipPath><clipPath id="37e146ca97"><path d="M 24.039062 5.28125 C 21.613281 5.28125 18.699219 4.027344 15.914062 2.855469 C 13.050781 1.625 10.058594 0.347656 7.453125 0.347656 C 3.902344 0.347656 1.625 2.675781 0.246094 7.660156 L 1.039062 7.914062 C 2.265625 4.644531 4.105469 3.132812 6.839844 3.132812 C 9.21875 3.132812 12.078125 4.363281 14.8125 5.511719 C 17.625 6.710938 20.5625 7.964844 23.121094 7.964844 C 25.929688 7.964844 27.976562 6.457031 29.382812 3.390625 L 30.890625 0.0664062 L 28.664062 2.957031 C 27.464844 4.539062 26.007812 5.257812 24.039062 5.257812 " clip-rule="nonzero"></path></clipPath><clipPath id="a6fc890113"><rect x="0" width="31" y="0" height="8"></rect></clipPath><clipPath id="7b3f132051"><path d="M 524 352.175781 L 572.253906 352.175781 L 572.253906 425.730469 L 524 425.730469 Z M 524 352.175781 " clip-rule="nonzero"></path></clipPath><clipPath id="2d61af8908"><path d="M 524.207031 352.4375 L 524.207031 425.398438 L 534.53125 425.398438 L 534.53125 354.914062 L 544.832031 354.914062 C 560.597656 354.914062 569.289062 357.625 570.414062 359.515625 C 570.464844 359.617188 570.617188 359.921875 571.664062 360.050781 L 572.226562 360.128906 L 570.71875 352.4375 Z M 524.207031 352.4375 " clip-rule="nonzero"></path></clipPath><clipPath id="0832543a71"><path d="M 0.160156 0.320312 L 48.253906 0.320312 L 48.253906 73.519531 L 0.160156 73.519531 Z M 0.160156 0.320312 " clip-rule="nonzero"></path></clipPath><clipPath id="d60b18e32f"><path d="M 0.207031 0.4375 L 0.207031 73.398438 L 10.53125 73.398438 L 10.53125 2.914062 L 20.832031 2.914062 C 36.597656 2.914062 45.289062 5.625 46.414062 7.515625 C 46.464844 7.617188 46.617188 7.921875 47.664062 8.050781 L 48.226562 8.128906 L 46.71875 0.4375 Z M 0.207031 0.4375 " clip-rule="nonzero"></path></clipPath><clipPath id="3517a35f8f"><rect x="0" width="49" y="0" height="74"></rect></clipPath><clipPath id="16b33062d1"><path d="M 583.777344 352.4375 L 593.464844 352.4375 L 593.464844 425.398438 L 583.777344 425.398438 Z M 583.777344 352.4375 " clip-rule="nonzero"></path></clipPath><clipPath id="86dbb59a12"><path d="M 0.777344 0.4375 L 10.464844 0.4375 L 10.464844 73.398438 L 0.777344 73.398438 Z M 0.777344 0.4375 " clip-rule="nonzero"></path></clipPath><clipPath id="ef5dcd6889"><rect x="0" width="11" y="0" height="74"></rect></clipPath><clipPath id="f22a3b6fde"><path d="M 606.234375 371.761719 L 661.402344 371.761719 L 661.402344 427 L 606.234375 427 Z M 606.234375 371.761719 " clip-rule="nonzero"></path></clipPath><clipPath id="8fab5f3472"><path d="M 651.578125 406.335938 C 651.578125 417.296875 646.621094 423.839844 638.289062 423.839844 C 625.050781 423.839844 615.828125 407.332031 615.828125 392.535156 C 615.828125 381.492188 620.835938 374.925781 629.21875 374.925781 C 642.40625 374.925781 651.578125 391.484375 651.578125 406.359375 M 633.765625 371.910156 C 614.753906 371.910156 606.242188 385.734375 606.242188 399.433594 C 606.242188 413.132812 614.753906 426.957031 633.765625 426.957031 C 652.703125 426.957031 661.1875 413.132812 661.1875 399.433594 C 661.1875 385.734375 652.703125 371.910156 633.765625 371.910156 " clip-rule="nonzero"></path></clipPath><clipPath id="91ffd659a2"><path d="M 0.238281 0.761719 L 55.199219 0.761719 L 55.199219 55.960938 L 0.238281 55.960938 Z M 0.238281 0.761719 " clip-rule="nonzero"></path></clipPath><clipPath id="9a3adc2e8c"><path d="M 45.578125 35.335938 C 45.578125 46.296875 40.621094 52.839844 32.289062 52.839844 C 19.050781 52.839844 9.828125 36.332031 9.828125 21.535156 C 9.828125 10.492188 14.835938 3.925781 23.21875 3.925781 C 36.40625 3.925781 45.578125 20.484375 45.578125 35.359375 M 27.765625 0.910156 C 8.753906 0.910156 0.242188 14.734375 0.242188 28.433594 C 0.242188 42.132812 8.753906 55.957031 27.765625 55.957031 C 46.703125 55.957031 55.1875 42.132812 55.1875 28.433594 C 55.1875 14.734375 46.703125 0.910156 27.765625 0.910156 " clip-rule="nonzero"></path></clipPath><clipPath id="0e3ede3001"><rect x="0" width="56" y="0" height="56"></rect></clipPath><clipPath id="6d4fd63f23"><path d="M 695 373 L 737.359375 373 L 737.359375 425.730469 L 695 425.730469 Z M 695 373 " clip-rule="nonzero"></path></clipPath><clipPath id="de91179406"><path d="M 729.09375 373.035156 L 729.449219 373.671875 C 729.476562 373.699219 730.832031 376.101562 730.832031 380.0625 C 730.832031 382.105469 730.449219 384.355469 729.730469 386.503906 L 720.121094 412.238281 L 705.480469 373.035156 L 695.101562 373.035156 L 715.214844 425.117188 L 715.316406 425.398438 L 717.644531 425.398438 L 737.015625 373.597656 L 737.21875 373.035156 Z M 729.09375 373.035156 " clip-rule="nonzero"></path></clipPath><clipPath id="e06fd97837"><path d="M 0.0390625 0 L 42.28125 0 L 42.28125 52.519531 L 0.0390625 52.519531 Z M 0.0390625 0 " clip-rule="nonzero"></path></clipPath><clipPath id="3361176c42"><path d="M 34.09375 0.0351562 L 34.449219 0.671875 C 34.476562 0.699219 35.832031 3.101562 35.832031 7.0625 C 35.832031 9.105469 35.449219 11.355469 34.730469 13.503906 L 25.121094 39.238281 L 10.480469 0.0351562 L 0.101562 0.0351562 L 20.214844 52.117188 L 20.316406 52.398438 L 22.644531 52.398438 L 42.015625 0.597656 L 42.21875 0.0351562 Z M 34.09375 0.0351562 " clip-rule="nonzero"></path></clipPath><clipPath id="555a30b6c1"><rect x="0" width="43" y="0" height="53"></rect></clipPath><clipPath id="c8a1af06ba"><path d="M 666.199219 373 L 699.78125 373 L 699.78125 425.730469 L 666.199219 425.730469 Z M 666.199219 373 " clip-rule="nonzero"></path></clipPath><clipPath id="79adddb1c9"><path d="M 697.964844 381.621094 L 697.25 380.90625 L 697.25 381.929688 C 697.25 382.082031 697.300781 382.183594 697.351562 382.234375 L 697.734375 382.234375 L 697.378906 382.386719 C 697.761719 383.359375 697.964844 384.738281 697.964844 386.453125 C 697.964844 390.027344 697.121094 396.621094 693.136719 407.84375 L 691.574219 412.238281 L 676.933594 373.058594 L 666.554688 373.058594 L 686.667969 425.144531 L 686.769531 425.425781 L 689.097656 425.425781 L 695.078125 408.660156 C 697.964844 400.429688 699.421875 393.734375 699.421875 388.726562 C 699.421875 386.144531 699.011719 383.921875 698.167969 382.132812 C 698.144531 381.902344 698.042969 381.722656 697.941406 381.621094 " clip-rule="nonzero"></path></clipPath><clipPath id="489ac41a49"><path d="M 0.480469 0 L 33.601562 0 L 33.601562 52.519531 L 0.480469 52.519531 Z M 0.480469 0 " clip-rule="nonzero"></path></clipPath><clipPath id="9360808300"><path d="M 31.964844 8.621094 L 31.25 7.90625 L 31.25 8.929688 C 31.25 9.082031 31.300781 9.183594 31.351562 9.234375 L 31.734375 9.234375 L 31.378906 9.386719 C 31.761719 10.359375 31.964844 11.738281 31.964844 13.453125 C 31.964844 17.027344 31.121094 23.621094 27.136719 34.84375 L 25.574219 39.238281 L 10.933594 0.0585938 L 0.554688 0.0585938 L 20.667969 52.144531 L 20.769531 52.425781 L 23.097656 52.425781 L 29.078125 35.660156 C 31.964844 27.429688 33.421875 20.734375 33.421875 15.726562 C 33.421875 13.144531 33.011719 10.921875 32.167969 9.132812 C 32.144531 8.902344 32.042969 8.722656 31.941406 8.621094 " clip-rule="nonzero"></path></clipPath><clipPath id="2dcdd219e1"><rect x="0" width="34" y="0" height="53"></rect></clipPath></defs><g clip-path="url(#a0a88e30f6)"><g clip-path="url(#6ebb128f78)"><g transform="matrix(1, 0, 0, 1, 30, 307)"><g clip-path="url(#753b61e2ef)"><g clip-path="url(#762be4dc11)"><g clip-path="url(#72261dfb6c)"><rect x="-195" width="1080" fill="#e6c15a" height="1079.999992" y="-471.999999" fill-opacity="1"></rect></g></g></g></g></g></g><g clip-path="url(#c838761005)"><g clip-path="url(#ba068a09b9)"><g transform="matrix(1, 0, 0, 1, 52, 358)"><g clip-path="url(#3425210102)"><g clip-path="url(#2bc5873cc5)"><g clip-path="url(#c0e1730a5e)"><rect x="-217" width="1080" fill="#e6c15a" height="1079.999992" y="-522.999999" fill-opacity="1"></rect></g></g></g></g></g></g><g clip-path="url(#a964b67be7)"><g clip-path="url(#82a27d91f5)"><g transform="matrix(1, 0, 0, 1, 65, 356)"><g clip-path="url(#573556a0ac)"><g clip-path="url(#3ad23b8fef)"><g clip-path="url(#7d3e33c547)"><rect x="-230" width="1080" fill="#e6c15a" height="1079.999992" y="-520.999999" fill-opacity="1"></rect></g></g></g></g></g></g><g clip-path="url(#9a2a308118)"><g clip-path="url(#ec1cab7668)"><g transform="matrix(1, 0, 0, 1, 12, 356)"><g clip-path="url(#aed3a60f26)"><g clip-path="url(#39a93a792f)"><g clip-path="url(#aefc2d69da)"><rect x="-177" width="1080" fill="#e6c15a" height="1079.999992" y="-520.999999" fill-opacity="1"></rect></g></g></g></g></g></g><g clip-path="url(#96f5629267)"><g clip-path="url(#0f1a38c251)"><g transform="matrix(1, 0, 0, 1, 132, 350)"><g clip-path="url(#9d46d44224)"><g clip-path="url(#5fbc42fad6)"><g clip-path="url(#7791196d78)"><rect x="-297" width="1080" fill="#ffffff" height="1079.999992" y="-514.999999" fill-opacity="1"></rect></g></g></g></g></g></g><g clip-path="url(#61d5c98587)"><g clip-path="url(#c597058554)"><g transform="matrix(1, 0, 0, 1, 200, 371)"><g clip-path="url(#c1cd338bca)"><g clip-path="url(#757cc78cee)"><g clip-path="url(#b6aac942e3)"><rect x="-365" width="1080" fill="#ffffff" height="1079.999992" y="-535.999999" fill-opacity="1"></rect></g></g></g></g></g></g><g clip-path="url(#b220d5e16a)"><g clip-path="url(#8bdaa6d8ba)"><g transform="matrix(1, 0, 0, 1, 262, 372)"><g clip-path="url(#db58657bf6)"><g clip-path="url(#92181ab4a3)"><g clip-path="url(#cd24181330)"><rect x="-427" width="1080" fill="#ffffff" height="1079.999992" y="-536.999999" fill-opacity="1"></rect></g></g></g></g></g></g><g clip-path="url(#0d0f76301e)"><g transform="matrix(1, 0, 0, 1, 327, 372)"><g clip-path="url(#0a26a9bbca)"><g clip-path="url(#37bdda7fd7)"><rect x="-492" width="1080" fill="#ffffff" height="1079.999992" y="-536.999999" fill-opacity="1"></rect></g></g></g></g><g clip-path="url(#527e92aaef)"><g clip-path="url(#e17f89c41f)"><g transform="matrix(1, 0, 0, 1, 337, 371)"><g clip-path="url(#29cd4a14a6)"><g clip-path="url(#c272c999d9)"><g clip-path="url(#18c65f8f0a)"><rect x="-502" width="1080" fill="#ffffff" height="1079.999992" y="-535.999999" fill-opacity="1"></rect></g></g></g></g></g></g><g clip-path="url(#2b74289b0c)"><g clip-path="url(#e7b9c830dd)"><g transform="matrix(1, 0, 0, 1, 388, 371)"><g clip-path="url(#ac42cc5d97)"><g clip-path="url(#41628e9d88)"><g clip-path="url(#18b48b7aa2)"><rect x="-553" width="1080" fill="#ffffff" height="1079.999992" y="-535.999999" fill-opacity="1"></rect></g></g></g></g></g></g><g clip-path="url(#6f85d98325)"><g transform="matrix(1, 0, 0, 1, 458, 375)"><g clip-path="url(#260af6f198)"><g clip-path="url(#8a1afa960f)"><rect x="-623" width="1080" fill="#ffffff" height="1079.999992" y="-539.999999" fill-opacity="1"></rect></g></g></g></g><g clip-path="url(#72d5e9a4f6)"><g clip-path="url(#ba9ac22441)"><g transform="matrix(1, 0, 0, 1, 535, 386)"><g clip-path="url(#a6fc890113)"><g clip-path="url(#756077b550)"><g clip-path="url(#37e146ca97)"><rect x="-700" width="1080" fill="#ffffff" height="1079.999992" y="-550.999999" fill-opacity="1"></rect></g></g></g></g></g></g><g clip-path="url(#7b3f132051)"><g clip-path="url(#2d61af8908)"><g transform="matrix(1, 0, 0, 1, 524, 352)"><g clip-path="url(#3517a35f8f)"><g clip-path="url(#0832543a71)"><g clip-path="url(#d60b18e32f)"><rect x="-689" width="1080" fill="#ffffff" height="1079.999992" y="-516.999999" fill-opacity="1"></rect></g></g></g></g></g></g><g clip-path="url(#16b33062d1)"><g transform="matrix(1, 0, 0, 1, 583, 352)"><g clip-path="url(#ef5dcd6889)"><g clip-path="url(#86dbb59a12)"><rect x="-748" width="1080" fill="#ffffff" height="1079.999992" y="-516.999999" fill-opacity="1"></rect></g></g></g></g><g clip-path="url(#f22a3b6fde)"><g clip-path="url(#8fab5f3472)"><g transform="matrix(1, 0, 0, 1, 606, 371)"><g clip-path="url(#0e3ede3001)"><g clip-path="url(#91ffd659a2)"><g clip-path="url(#9a3adc2e8c)"><rect x="-771" width="1080" fill="#ffffff" height="1079.999992" y="-535.999999" fill-opacity="1"></rect></g></g></g></g></g></g><g clip-path="url(#6d4fd63f23)"><g clip-path="url(#de91179406)"><g transform="matrix(1, 0, 0, 1, 695, 373)"><g clip-path="url(#555a30b6c1)"><g clip-path="url(#e06fd97837)"><g clip-path="url(#3361176c42)"><rect x="-860" width="1080" fill="#ffffff" height="1079.999992" y="-537.999999" fill-opacity="1"></rect></g></g></g></g></g></g><g clip-path="url(#c8a1af06ba)"><g clip-path="url(#79adddb1c9)"><g transform="matrix(1, 0, 0, 1, 666, 373)"><g clip-path="url(#2dcdd219e1)"><g clip-path="url(#489ac41a49)"><g clip-path="url(#9360808300)"><rect x="-831" width="1080" fill="#ffffff" height="1079.999992" y="-537.999999" fill-opacity="1"></rect></g></g></g></g></g></g></svg>