<svg xmlns="http://www.w3.org/2000/svg" xmlns:xlink="http://www.w3.org/1999/xlink" width="728.75" zoomAndPan="magnify" viewBox="7.25 7.25 728.75 728.75" height="728.75" preserveAspectRatio="xMidYMid meet" version="1.0"><defs><clipPath id="c945119325"><path d="M 11.804688 11.804688 L 731.804688 11.804688 L 731.804688 731.804688 L 11.804688 731.804688 Z M 11.804688 11.804688 " clip-rule="nonzero"></path></clipPath><clipPath id="23913df2c1"><path d="M 152.203125 296.828125 L 159.78125 296.828125 L 159.78125 325.453125 L 152.203125 325.453125 Z M 120.183594 325.453125 L 191.804688 325.453125 L 191.804688 333.195312 L 120.183594 333.195312 Z M 152.203125 333.195312 L 159.78125 333.195312 L 159.78125 361.820312 L 152.203125 361.820312 Z M 152.203125 333.195312 " clip-rule="nonzero"></path></clipPath><clipPath id="c62aff9b72"><path d="M 32.203125 0.828125 L 39.78125 0.828125 L 39.78125 29.453125 L 32.203125 29.453125 Z M 0.183594 29.453125 L 71.804688 29.453125 L 71.804688 37.195312 L 0.183594 37.195312 Z M 32.203125 37.195312 L 39.78125 37.195312 L 39.78125 65.820312 L 32.203125 65.820312 Z M 32.203125 37.195312 " clip-rule="nonzero"></path></clipPath><clipPath id="1a978a457a"><rect x="0" width="72" y="0" height="66"></rect></clipPath><clipPath id="44a062f535"><path d="M 241.664062 315 L 287.835938 315 L 287.835938 327 L 241.664062 327 Z M 241.664062 315 " clip-rule="nonzero"></path></clipPath><clipPath id="bea5306ff8"><path d="M 278.617188 323 C 274.707031 323 270.132812 321.042969 265.707031 319.128906 C 261.238281 317.214844 256.605469 315.214844 252.589844 315.214844 C 247.234375 315.214844 243.753906 318.78125 241.675781 326.398438 L 242.167969 326.5625 C 244.167969 321.269531 247.171875 318.800781 251.640625 318.800781 C 255.472656 318.800781 259.960938 320.714844 264.304688 322.589844 C 268.714844 324.464844 273.242188 326.398438 277.175781 326.398438 C 281.417969 326.398438 284.527344 324.132812 286.628906 319.457031 L 287.554688 317.421875 L 286.195312 319.210938 C 284.261719 321.746094 281.769531 322.980469 278.640625 322.980469 " clip-rule="nonzero"></path></clipPath><clipPath id="f346b36170"><path d="M 0.664062 0.121094 L 46.640625 0.121094 L 46.640625 11.640625 L 0.664062 11.640625 Z M 0.664062 0.121094 " clip-rule="nonzero"></path></clipPath><clipPath id="d1b40e7f9b"><path d="M 37.617188 8 C 33.707031 8 29.132812 6.042969 24.707031 4.128906 C 20.238281 2.214844 15.605469 0.214844 11.589844 0.214844 C 6.234375 0.214844 2.753906 3.78125 0.675781 11.398438 L 1.167969 11.5625 C 3.167969 6.269531 6.171875 3.800781 10.640625 3.800781 C 14.472656 3.800781 18.960938 5.714844 23.304688 7.589844 C 27.714844 9.464844 32.242188 11.398438 36.175781 11.398438 C 40.417969 11.398438 43.527344 9.132812 45.628906 4.457031 L 46.554688 2.421875 L 45.195312 4.210938 C 43.261719 6.746094 40.769531 7.980469 37.640625 7.980469 " clip-rule="nonzero"></path></clipPath><clipPath id="0e155326ae"><rect x="0" width="47" y="0" height="12"></rect></clipPath><clipPath id="8224e01248"><path d="M 224.097656 262 L 298.878906 262 L 298.878906 376 L 224.097656 376 Z M 224.097656 262 " clip-rule="nonzero"></path></clipPath><clipPath id="7a5df73a08"><path d="M 224.355469 262.046875 L 224.355469 375.738281 L 239.738281 375.738281 L 239.738281 265.15625 L 256.296875 265.15625 C 281.214844 265.15625 294.988281 269.519531 296.800781 272.609375 C 296.988281 273 297.914062 273.164062 298.449219 273.226562 L 298.800781 273.269531 L 296.617188 262.046875 Z M 224.355469 262.046875 " clip-rule="nonzero"></path></clipPath><clipPath id="fc1f648a32"><path d="M 0.28125 0 L 74.878906 0 L 74.878906 113.839844 L 0.28125 113.839844 Z M 0.28125 0 " clip-rule="nonzero"></path></clipPath><clipPath id="06b1b79a59"><path d="M 0.355469 0.046875 L 0.355469 113.738281 L 15.738281 113.738281 L 15.738281 3.15625 L 32.296875 3.15625 C 57.214844 3.15625 70.988281 7.519531 72.800781 10.609375 C 72.988281 11 73.914062 11.164062 74.449219 11.226562 L 74.800781 11.269531 L 72.617188 0.046875 Z M 0.355469 0.046875 " clip-rule="nonzero"></path></clipPath><clipPath id="96c21a0637"><rect x="0" width="75" y="0" height="114"></rect></clipPath><clipPath id="04e9809c36"><path d="M 317.828125 262.046875 L 332.242188 262.046875 L 332.242188 375.738281 L 317.828125 375.738281 Z M 317.828125 262.046875 " clip-rule="nonzero"></path></clipPath><clipPath id="4ec488a17c"><path d="M 0.828125 0.046875 L 15.242188 0.046875 L 15.242188 113.738281 L 0.828125 113.738281 Z M 0.828125 0.046875 " clip-rule="nonzero"></path></clipPath><clipPath id="addbf49164"><rect x="0" width="16" y="0" height="114"></rect></clipPath><clipPath id="6396cf81c4"><path d="M 353 292.261719 L 438.578125 292.261719 L 438.578125 378.519531 L 353 378.519531 Z M 353 292.261719 " clip-rule="nonzero"></path></clipPath><clipPath id="0b4c24695d"><path d="M 388.75 296.519531 C 409.652344 296.519531 424.230469 322.714844 424.230469 346.230469 C 424.230469 363.695312 416.28125 374.113281 402.980469 374.113281 C 381.972656 374.113281 367.332031 348.003906 367.332031 324.566406 C 367.332031 311.019531 372.953125 296.519531 388.75 296.519531 M 395.875 292.609375 C 382.550781 292.609375 371.429688 297.136719 363.75 305.703125 C 356.871094 313.367188 353.082031 323.910156 353.082031 335.398438 C 353.082031 356.691406 366.304688 378.171875 395.875 378.171875 C 425.324219 378.171875 438.503906 356.691406 438.503906 335.398438 C 438.503906 314.105469 425.300781 292.609375 395.875 292.609375 " clip-rule="nonzero"></path></clipPath><clipPath id="834f5e2ed0"><path d="M 0 0.558594 L 85.578125 0.558594 L 85.578125 86.238281 L 0 86.238281 Z M 0 0.558594 " clip-rule="nonzero"></path></clipPath><clipPath id="1cd274805c"><path d="M 35.75 4.519531 C 56.652344 4.519531 71.230469 30.714844 71.230469 54.230469 C 71.230469 71.695312 63.28125 82.113281 49.980469 82.113281 C 28.972656 82.113281 14.332031 56.003906 14.332031 32.566406 C 14.332031 19.019531 19.953125 4.519531 35.75 4.519531 M 42.875 0.609375 C 29.550781 0.609375 18.429688 5.136719 10.75 13.703125 C 3.871094 21.367188 0.0820312 31.910156 0.0820312 43.398438 C 0.0820312 64.691406 13.304688 86.171875 42.875 86.171875 C 72.324219 86.171875 85.503906 64.691406 85.503906 43.398438 C 85.503906 22.105469 72.300781 0.609375 42.875 0.609375 " clip-rule="nonzero"></path></clipPath><clipPath id="ba9c173dc3"><rect x="0" width="86" y="0" height="87"></rect></clipPath><clipPath id="39bcacc8ca"><path d="M 492.488281 294.335938 L 558 294.335938 L 558 376 L 492.488281 376 Z M 492.488281 294.335938 " clip-rule="nonzero"></path></clipPath><clipPath id="f388f8c7e1"><path d="M 546.121094 294.378906 L 546.347656 294.769531 C 546.367188 294.8125 548.574219 298.683594 548.574219 304.984375 C 548.574219 308.238281 547.953125 311.78125 546.800781 315.238281 L 531.355469 356.632812 L 508.105469 294.378906 L 492.683594 294.378906 L 524.023438 375.578125 L 524.085938 375.742188 L 527.195312 375.742188 L 557.488281 294.730469 L 557.613281 294.378906 Z M 546.121094 294.378906 " clip-rule="nonzero"></path></clipPath><clipPath id="ab16bc3d57"><path d="M 0.601562 0.335938 L 65.640625 0.335938 L 65.640625 81.839844 L 0.601562 81.839844 Z M 0.601562 0.335938 " clip-rule="nonzero"></path></clipPath><clipPath id="301d1a2423"><path d="M 54.121094 0.378906 L 54.347656 0.769531 C 54.367188 0.8125 56.574219 4.683594 56.574219 10.984375 C 56.574219 14.238281 55.953125 17.78125 54.800781 21.238281 L 39.355469 62.632812 L 16.105469 0.378906 L 0.683594 0.378906 L 32.023438 81.578125 L 32.085938 81.742188 L 35.195312 81.742188 L 65.488281 0.730469 L 65.613281 0.378906 Z M 54.121094 0.378906 " clip-rule="nonzero"></path></clipPath><clipPath id="e4b5a18ee1"><rect x="0" width="66" y="0" height="82"></rect></clipPath><clipPath id="cd8323db6c"><path d="M 447.699219 294.335938 L 498.707031 294.335938 L 498.707031 376 L 447.699219 376 Z M 447.699219 294.335938 " clip-rule="nonzero"></path></clipPath><clipPath id="22cbd81f19"><path d="M 496.699219 308.753906 C 496.65625 308.589844 496.59375 308.421875 496.535156 308.277344 L 496.058594 308.484375 C 496.101562 308.589844 496.140625 308.730469 496.203125 308.898438 C 496.226562 308.957031 496.246094 309.019531 496.265625 309.101562 C 496.308594 309.289062 496.367188 309.453125 496.429688 309.617188 C 496.820312 311.078125 497.027344 312.890625 497.027344 315.011719 C 497.027344 320.65625 495.710938 331.074219 489.449219 348.722656 L 486.609375 356.632812 L 463.316406 294.378906 L 447.894531 294.378906 L 479.234375 375.578125 L 479.296875 375.742188 L 482.40625 375.742188 L 491.671875 349.691406 C 496.183594 336.820312 498.488281 326.339844 498.488281 318.554688 C 498.488281 315.175781 497.976562 312.191406 496.90625 309.453125 C 496.84375 309.183594 496.761719 308.957031 496.699219 308.730469 " clip-rule="nonzero"></path></clipPath><clipPath id="abeb6d6b18"><path d="M 0.71875 0.335938 L 51.601562 0.335938 L 51.601562 81.839844 L 0.71875 81.839844 Z M 0.71875 0.335938 " clip-rule="nonzero"></path></clipPath><clipPath id="24d1e61031"><path d="M 49.699219 14.753906 C 49.65625 14.589844 49.59375 14.421875 49.535156 14.277344 L 49.058594 14.484375 C 49.101562 14.589844 49.140625 14.730469 49.203125 14.898438 C 49.226562 14.957031 49.246094 15.019531 49.265625 15.101562 C 49.308594 15.289062 49.367188 15.453125 49.429688 15.617188 C 49.820312 17.078125 50.027344 18.890625 50.027344 21.011719 C 50.027344 26.65625 48.710938 37.074219 42.449219 54.722656 L 39.609375 62.632812 L 16.316406 0.378906 L 0.894531 0.378906 L 32.234375 81.578125 L 32.296875 81.742188 L 35.40625 81.742188 L 44.671875 55.691406 C 49.183594 42.820312 51.488281 32.339844 51.488281 24.554688 C 51.488281 21.175781 50.976562 18.191406 49.90625 15.453125 C 49.84375 15.183594 49.761719 14.957031 49.699219 14.730469 " clip-rule="nonzero"></path></clipPath><clipPath id="f629d3dae5"><rect x="0" width="52" y="0" height="82"></rect></clipPath><clipPath id="39eaaf1ee5"><path d="M 10 113 L 104.566406 113 L 104.566406 233.945312 L 10 233.945312 Z M 10 113 " clip-rule="nonzero"></path></clipPath><clipPath id="491734e8eb"><path d="M 59.433594 163.582031 C 41.722656 158.144531 25 153.039062 25 139.714844 C 25 126.019531 41.722656 117.824219 57.886719 117.824219 C 71.953125 117.824219 89.640625 124.332031 93.203125 142.679688 L 93.617188 144.820312 L 93.71875 142.660156 C 93.988281 136.359375 91.824219 130.757812 87.253906 126 C 79.839844 118.257812 66.308594 113.457031 51.914062 113.457031 C 32.226562 113.457031 12.375 122.785156 12.375 143.628906 C 12.375 165.515625 35.503906 173.941406 55.890625 181.375 C 73.414062 187.757812 89.992188 193.792969 89.992188 207.175781 C 89.992188 221.550781 70.839844 229.066406 51.9375 229.066406 C 37.171875 229.066406 24.300781 224.578125 17.523438 217.0625 C 13.222656 212.304688 11.386719 206.476562 12.089844 199.765625 L 11.574219 199.679688 C 11.058594 201.761719 10.730469 203.574219 10.730469 205.53125 C 10.730469 213.808594 15.691406 220.871094 25.0625 225.980469 C 33.421875 230.53125 44.953125 233.125 56.734375 233.125 C 69.296875 233.125 80.929688 230.304688 89.496094 225.195312 C 99.339844 219.328125 104.550781 210.71875 104.550781 200.359375 C 104.550781 177.421875 80.582031 170.070312 59.433594 163.601562 " clip-rule="nonzero"></path></clipPath><clipPath id="1fbb128722"><path d="M 0.679688 0.28125 L 94.566406 0.28125 L 94.566406 120.28125 L 0.679688 120.28125 Z M 0.679688 0.28125 " clip-rule="nonzero"></path></clipPath><clipPath id="75445d0231"><path d="M 49.433594 50.582031 C 31.722656 45.144531 15 40.039062 15 26.714844 C 15 13.019531 31.722656 4.824219 47.886719 4.824219 C 61.953125 4.824219 79.640625 11.332031 83.203125 29.679688 L 83.617188 31.820312 L 83.71875 29.660156 C 83.988281 23.359375 81.824219 17.757812 77.253906 13 C 69.839844 5.257812 56.308594 0.457031 41.914062 0.457031 C 22.226562 0.457031 2.375 9.785156 2.375 30.628906 C 2.375 52.515625 25.503906 60.941406 45.890625 68.375 C 63.414062 74.757812 79.992188 80.792969 79.992188 94.175781 C 79.992188 108.550781 60.839844 116.066406 41.9375 116.066406 C 27.171875 116.066406 14.300781 111.578125 7.523438 104.0625 C 3.222656 99.304688 1.386719 93.476562 2.089844 86.765625 L 1.574219 86.679688 C 1.058594 88.761719 0.730469 90.574219 0.730469 92.53125 C 0.730469 100.808594 5.691406 107.871094 15.0625 112.980469 C 23.421875 117.53125 34.953125 120.125 46.734375 120.125 C 59.296875 120.125 70.929688 117.304688 79.496094 112.195312 C 89.339844 106.328125 94.550781 97.71875 94.550781 87.359375 C 94.550781 64.421875 70.582031 57.070312 49.433594 50.601562 " clip-rule="nonzero"></path></clipPath><clipPath id="c51a3c16fb"><rect x="0" width="95" y="0" height="121"></rect></clipPath><clipPath id="6d8caa7500"><path d="M 118 146 L 212.488281 146 L 212.488281 232 L 118 232 Z M 118 146 " clip-rule="nonzero"></path></clipPath><clipPath id="c40c2ff22f"><path d="M 201.316406 226.121094 C 197.261719 226.121094 195.097656 222.023438 195.097656 214.261719 L 195.097656 189.199219 C 195.097656 166.898438 190.710938 146.261719 158.9375 146.261719 C 144.273438 146.261719 131.179688 156.210938 127.800781 169.902344 L 128.046875 169.964844 L 127.800781 169.964844 C 127.800781 170.089844 127.757812 170.234375 127.738281 170.378906 C 127.699219 170.542969 127.65625 170.726562 127.65625 170.933594 L 128.171875 170.933594 C 128.171875 170.808594 128.210938 170.664062 128.234375 170.5 C 128.253906 170.335938 128.316406 170.171875 128.316406 169.984375 C 130.230469 163.003906 138.984375 149.824219 158.464844 149.824219 C 168.65625 149.824219 174.875 153.613281 178.027344 161.726562 C 180.847656 168.976562 180.847656 178.574219 180.828125 188.746094 L 180.828125 192.289062 C 174.484375 184.277344 164.207031 179.683594 152.472656 179.683594 C 128.832031 179.683594 118.265625 193.214844 118.265625 206.621094 C 118.265625 218.503906 126.914062 231.128906 142.9375 231.128906 C 155.230469 231.128906 169.171875 223.652344 179.34375 211.625 L 178.996094 211.253906 C 167.976562 220.335938 158.464844 224.929688 150.699219 224.929688 C 141.578125 224.929688 132.371094 217.96875 132.371094 204.644531 C 132.371094 193.503906 139.929688 182.257812 156.855469 182.257812 C 166.207031 182.257812 175.183594 187.097656 180.847656 195.191406 L 180.847656 214.671875 C 180.847656 219.675781 182.371094 223.796875 185.253906 226.535156 C 187.789062 228.945312 191.371094 230.28125 195.34375 230.28125 C 201.914062 230.28125 208.011719 226.824219 211.242188 221.261719 L 212.253906 219.554688 L 210.851562 220.953125 C 207.703125 224.105469 204.054688 226.0625 201.339844 226.0625 " clip-rule="nonzero"></path></clipPath><clipPath id="4be018492a"><path d="M 0.199219 0.160156 L 94.28125 0.160156 L 94.28125 85.359375 L 0.199219 85.359375 Z M 0.199219 0.160156 " clip-rule="nonzero"></path></clipPath><clipPath id="bdc1f4b459"><path d="M 83.316406 80.121094 C 79.261719 80.121094 77.097656 76.023438 77.097656 68.261719 L 77.097656 43.199219 C 77.097656 20.898438 72.710938 0.261719 40.9375 0.261719 C 26.273438 0.261719 13.179688 10.210938 9.800781 23.902344 L 10.046875 23.964844 L 9.800781 23.964844 C 9.800781 24.089844 9.757812 24.234375 9.738281 24.378906 C 9.699219 24.542969 9.65625 24.726562 9.65625 24.933594 L 10.171875 24.933594 C 10.171875 24.808594 10.210938 24.664062 10.234375 24.5 C 10.253906 24.335938 10.316406 24.171875 10.316406 23.984375 C 12.230469 17.003906 20.984375 3.824219 40.464844 3.824219 C 50.65625 3.824219 56.875 7.613281 60.027344 15.726562 C 62.847656 22.976562 62.847656 32.574219 62.828125 42.746094 L 62.828125 46.289062 C 56.484375 38.277344 46.207031 33.683594 34.472656 33.683594 C 10.832031 33.683594 0.265625 47.214844 0.265625 60.621094 C 0.265625 72.503906 8.914062 85.128906 24.9375 85.128906 C 37.230469 85.128906 51.171875 77.652344 61.34375 65.625 L 60.996094 65.253906 C 49.976562 74.335938 40.464844 78.929688 32.699219 78.929688 C 23.578125 78.929688 14.371094 71.96875 14.371094 58.644531 C 14.371094 47.503906 21.929688 36.257812 38.855469 36.257812 C 48.207031 36.257812 57.183594 41.097656 62.847656 49.191406 L 62.847656 68.671875 C 62.847656 73.675781 64.371094 77.796875 67.253906 80.535156 C 69.789062 82.945312 73.371094 84.28125 77.34375 84.28125 C 83.914062 84.28125 90.011719 80.824219 93.242188 75.261719 L 94.253906 73.554688 L 92.851562 74.953125 C 89.703125 78.105469 86.054688 80.0625 83.339844 80.0625 " clip-rule="nonzero"></path></clipPath><clipPath id="6164caf971"><rect x="0" width="95" y="0" height="86"></rect></clipPath><clipPath id="1ccd64a846"><path d="M 275 148 L 307 148 L 307 231 L 275 231 Z M 275 148 " clip-rule="nonzero"></path></clipPath><clipPath id="b9c7bf104f"><path d="M 295.921875 226.121094 C 291.90625 226.121094 289.703125 221.902344 289.703125 214.261719 L 289.703125 148.035156 L 275.289062 148.035156 L 275.289062 214.753906 C 275.289062 219.757812 276.8125 223.878906 279.695312 226.617188 C 282.226562 229.027344 285.8125 230.363281 289.785156 230.363281 C 296.355469 230.363281 302.65625 226.824219 305.847656 221.34375 L 306.855469 219.636719 L 305.457031 221.035156 C 302.304688 224.1875 298.660156 226.144531 295.941406 226.144531 " clip-rule="nonzero"></path></clipPath><clipPath id="9c952218ea"><path d="M 0.160156 0 L 32 0 L 32 82.398438 L 0.160156 82.398438 Z M 0.160156 0 " clip-rule="nonzero"></path></clipPath><clipPath id="af07229649"><path d="M 20.921875 78.121094 C 16.90625 78.121094 14.703125 73.902344 14.703125 66.261719 L 14.703125 0.0351562 L 0.289062 0.0351562 L 0.289062 66.753906 C 0.289062 71.757812 1.8125 75.878906 4.695312 78.617188 C 7.226562 81.027344 10.8125 82.363281 14.785156 82.363281 C 21.355469 82.363281 27.65625 78.824219 30.847656 73.34375 L 31.855469 71.636719 L 30.457031 73.035156 C 27.304688 76.1875 23.660156 78.144531 20.941406 78.144531 " clip-rule="nonzero"></path></clipPath><clipPath id="8ec05a09d5"><rect x="0" width="32" y="0" height="83"></rect></clipPath><clipPath id="d5580e81dd"><path d="M 215.328125 148 L 274.96875 148 L 274.96875 231.105469 L 215.328125 231.105469 Z M 215.328125 148 " clip-rule="nonzero"></path></clipPath><clipPath id="316dd38bfb"><path d="M 252.101562 231.003906 C 261.285156 231.003906 272.199219 225.773438 274.339844 216.09375 L 274.855469 213.746094 L 273.847656 215.929688 C 270.652344 222.910156 264.003906 226.289062 253.542969 226.289062 C 243.511719 226.289062 236.839844 221.738281 233.175781 212.347656 C 230.105469 204.519531 229.695312 194.800781 229.695312 185.472656 L 229.695312 148.035156 L 215.445312 148.035156 L 215.445312 182.570312 C 215.445312 194.019531 215.835938 205.960938 220.511719 215.148438 C 225.945312 225.8125 236.265625 231.003906 252.078125 231.003906 " clip-rule="nonzero"></path></clipPath><clipPath id="7743c782d2"><path d="M 0.398438 0 L 59.921875 0 L 59.921875 83.105469 L 0.398438 83.105469 Z M 0.398438 0 " clip-rule="nonzero"></path></clipPath><clipPath id="50623f3b1c"><path d="M 37.101562 83.003906 C 46.285156 83.003906 57.199219 77.773438 59.339844 68.09375 L 59.855469 65.746094 L 58.847656 67.929688 C 55.652344 74.910156 49.003906 78.289062 38.542969 78.289062 C 28.511719 78.289062 21.839844 73.738281 18.175781 64.347656 C 15.105469 56.519531 14.695312 46.800781 14.695312 37.472656 L 14.695312 0.0351562 L 0.445312 0.0351562 L 0.445312 34.570312 C 0.445312 46.019531 0.835938 57.960938 5.511719 67.148438 C 10.945312 77.8125 21.265625 83.003906 37.078125 83.003906 " clip-rule="nonzero"></path></clipPath><clipPath id="86ad4d53e8"><rect x="0" width="60" y="0" height="84"></rect></clipPath><clipPath id="bc141fabf2"><path d="M 333 146 L 410.34375 146 L 410.34375 231 L 333 231 Z M 333 146 " clip-rule="nonzero"></path></clipPath><clipPath id="a59713add8"><path d="M 375.597656 165.640625 C 378.601562 174.765625 378.601562 185.863281 378.601562 194.78125 C 378.601562 196.097656 378.601562 197.375 378.625 198.546875 L 378.625 214.714844 C 378.625 219.738281 380.148438 223.835938 383.03125 226.574219 C 385.5625 228.984375 389.144531 230.324219 393.121094 230.324219 C 399.691406 230.324219 405.992188 226.78125 409.183594 221.304688 L 410.191406 219.59375 L 408.792969 220.996094 C 405.640625 224.144531 401.996094 226.101562 399.277344 226.101562 C 395.222656 226.101562 393.058594 222.003906 393.058594 214.21875 L 393.058594 197.601562 C 393.078125 182.546875 393.121094 165.476562 382.949219 155.28125 C 376.976562 149.289062 368.222656 146.367188 356.257812 146.367188 C 348.703125 146.367188 338.136719 148.941406 333.238281 156.1875 L 333.648438 156.496094 C 335.132812 154.808594 339.660156 149.640625 354.796875 149.640625 C 365.257812 149.640625 372.074219 154.871094 375.597656 165.601562 " clip-rule="nonzero"></path></clipPath><clipPath id="1a9c2fe8bf"><path d="M 0 0.160156 L 77.28125 0.160156 L 77.28125 84.398438 L 0 84.398438 Z M 0 0.160156 " clip-rule="nonzero"></path></clipPath><clipPath id="b49cdcc288"><path d="M 42.597656 19.640625 C 45.601562 28.765625 45.601562 39.863281 45.601562 48.78125 C 45.601562 50.097656 45.601562 51.375 45.625 52.546875 L 45.625 68.714844 C 45.625 73.738281 47.148438 77.835938 50.03125 80.574219 C 52.5625 82.984375 56.144531 84.324219 60.121094 84.324219 C 66.691406 84.324219 72.992188 80.78125 76.183594 75.304688 L 77.191406 73.59375 L 75.792969 74.996094 C 72.640625 78.144531 68.996094 80.101562 66.277344 80.101562 C 62.222656 80.101562 60.058594 76.003906 60.058594 68.21875 L 60.058594 51.601562 C 60.078125 36.546875 60.121094 19.476562 49.949219 9.28125 C 43.976562 3.289062 35.222656 0.367188 23.257812 0.367188 C 15.703125 0.367188 5.136719 2.941406 0.238281 10.1875 L 0.648438 10.496094 C 2.132812 8.808594 6.660156 3.640625 21.796875 3.640625 C 32.257812 3.640625 39.074219 8.871094 42.597656 19.601562 " clip-rule="nonzero"></path></clipPath><clipPath id="c8fd92a4d4"><rect x="0" width="78" y="0" height="85"></rect></clipPath><clipPath id="87451ca30b"><path d="M 317.832031 148.035156 L 332.246094 148.035156 L 332.246094 229.398438 L 317.832031 229.398438 Z M 317.832031 148.035156 " clip-rule="nonzero"></path></clipPath><clipPath id="0f6c2c89a1"><path d="M 0.832031 0.0351562 L 15.246094 0.0351562 L 15.246094 81.398438 L 0.832031 81.398438 Z M 0.832031 0.0351562 " clip-rule="nonzero"></path></clipPath><clipPath id="433e7bab58"><rect x="0" width="16" y="0" height="82"></rect></clipPath><clipPath id="9f059a73f1"><path d="M 412.238281 146 L 506.90625 146 L 506.90625 232 L 412.238281 232 Z M 412.238281 146 " clip-rule="nonzero"></path></clipPath><clipPath id="d202e5dc06"><path d="M 437.417969 231.167969 C 449.710938 231.167969 463.652344 223.691406 473.824219 211.667969 L 473.453125 211.296875 C 462.4375 220.378906 452.921875 224.988281 445.160156 224.988281 C 436.035156 224.988281 426.832031 218.03125 426.832031 204.707031 C 426.832031 193.566406 434.410156 182.320312 451.316406 182.320312 C 460.664062 182.320312 469.625 187.140625 475.308594 195.253906 L 475.308594 214.734375 C 475.308594 219.757812 476.832031 223.859375 479.714844 226.597656 C 482.246094 229.007812 485.832031 230.34375 489.804688 230.34375 C 496.375 230.34375 502.46875 226.886719 505.703125 221.324219 L 506.710938 219.617188 L 505.3125 221.015625 C 502.160156 224.167969 498.515625 226.121094 495.796875 226.121094 C 491.742188 226.121094 489.578125 222.023438 489.578125 214.261719 L 489.578125 189.199219 C 489.578125 166.898438 485.191406 146.261719 453.417969 146.261719 C 438.753906 146.261719 425.679688 156.210938 422.28125 169.902344 L 422.527344 169.964844 L 422.28125 169.964844 C 422.28125 170.089844 422.238281 170.234375 422.199219 170.398438 C 422.15625 170.5625 422.117188 170.75 422.117188 170.953125 L 422.628906 170.953125 C 422.628906 170.832031 422.671875 170.6875 422.714844 170.523438 C 422.753906 170.355469 422.796875 170.191406 422.796875 170.007812 C 424.710938 163.027344 433.460938 149.847656 452.945312 149.847656 C 463.136719 149.847656 469.355469 153.636719 472.507812 161.75 C 475.328125 168.996094 475.328125 178.59375 475.328125 188.765625 L 475.328125 192.328125 C 468.984375 184.320312 458.710938 179.726562 446.972656 179.726562 C 423.332031 179.726562 412.765625 193.257812 412.765625 206.664062 C 412.765625 218.542969 421.414062 231.167969 437.4375 231.167969 " clip-rule="nonzero"></path></clipPath><clipPath id="b5f946dc32"><path d="M 0.679688 0.160156 L 94.761719 0.160156 L 94.761719 85.359375 L 0.679688 85.359375 Z M 0.679688 0.160156 " clip-rule="nonzero"></path></clipPath><clipPath id="e0f6844f9f"><path d="M 25.417969 85.167969 C 37.710938 85.167969 51.652344 77.691406 61.824219 65.667969 L 61.453125 65.296875 C 50.4375 74.378906 40.921875 78.988281 33.160156 78.988281 C 24.035156 78.988281 14.832031 72.03125 14.832031 58.707031 C 14.832031 47.566406 22.410156 36.320312 39.316406 36.320312 C 48.664062 36.320312 57.625 41.140625 63.308594 49.253906 L 63.308594 68.734375 C 63.308594 73.757812 64.832031 77.859375 67.714844 80.597656 C 70.246094 83.007812 73.832031 84.34375 77.804688 84.34375 C 84.375 84.34375 90.46875 80.886719 93.703125 75.324219 L 94.710938 73.617188 L 93.3125 75.015625 C 90.160156 78.167969 86.515625 80.121094 83.796875 80.121094 C 79.742188 80.121094 77.578125 76.023438 77.578125 68.261719 L 77.578125 43.199219 C 77.578125 20.898438 73.191406 0.261719 41.417969 0.261719 C 26.753906 0.261719 13.679688 10.210938 10.28125 23.902344 L 10.527344 23.964844 L 10.28125 23.964844 C 10.28125 24.089844 10.238281 24.234375 10.199219 24.398438 C 10.15625 24.5625 10.117188 24.75 10.117188 24.953125 L 10.628906 24.953125 C 10.628906 24.832031 10.671875 24.6875 10.714844 24.523438 C 10.753906 24.355469 10.796875 24.191406 10.796875 24.007812 C 12.710938 17.027344 21.460938 3.847656 40.945312 3.847656 C 51.136719 3.847656 57.355469 7.636719 60.507812 15.75 C 63.328125 22.996094 63.328125 32.59375 63.328125 42.765625 L 63.328125 46.328125 C 56.984375 38.320312 46.710938 33.726562 34.972656 33.726562 C 11.332031 33.726562 0.765625 47.257812 0.765625 60.664062 C 0.765625 72.542969 9.414062 85.167969 25.4375 85.167969 " clip-rule="nonzero"></path></clipPath><clipPath id="e3de48fbb7"><rect x="0" width="95" y="0" height="86"></rect></clipPath><clipPath id="65dd7599d1"><path d="M 526 11 L 560 11 L 560 93.835938 L 526 93.835938 Z M 526 11 " clip-rule="nonzero"></path></clipPath><clipPath id="1d2c299af1"><path d="M 527.265625 68.625 C 531.507812 54.707031 550.59375 40.96875 554.816406 27.070312 C 556.464844 21.675781 555.867188 16.527344 552.160156 11.359375 C 559.757812 18.007812 561.140625 24.640625 559.164062 31.167969 C 555.003906 44.800781 536.304688 58.332031 532.144531 71.964844 C 529.980469 79.066406 531.566406 86.070312 540.875 93.234375 C 527.613281 84.855469 524.773438 76.84375 527.285156 68.605469 " clip-rule="nonzero"></path></clipPath><clipPath id="0571c6473d"><path d="M 0 0.28125 L 34 0.28125 L 34 82.359375 L 0 82.359375 Z M 0 0.28125 " clip-rule="nonzero"></path></clipPath><clipPath id="83b016595e"><path d="M 1.265625 57.625 C 5.507812 43.707031 24.59375 29.96875 28.816406 16.070312 C 30.464844 10.675781 29.867188 5.527344 26.160156 0.359375 C 33.757812 7.007812 35.140625 13.640625 33.164062 20.167969 C 29.003906 33.800781 10.304688 47.332031 6.144531 60.964844 C 3.980469 68.066406 5.566406 75.070312 14.875 82.234375 C 1.613281 73.855469 -1.226562 65.84375 1.285156 57.605469 " clip-rule="nonzero"></path></clipPath><clipPath id="d3deab878b"><rect x="0" width="34" y="0" height="83"></rect></clipPath><clipPath id="fa2f44f3c5"><path d="M 547 60.703125 L 567.492188 60.703125 L 567.492188 143 L 547 143 Z M 547 60.703125 " clip-rule="nonzero"></path></clipPath><clipPath id="1e91865d26"><path d="M 547.300781 122.867188 C 547.300781 108.332031 561.550781 89.632812 561.550781 75.074219 C 561.550781 69.429688 559.472656 64.671875 554.425781 60.820312 C 563.632812 64.980469 566.882812 70.914062 566.882812 77.75 C 566.882812 92 552.921875 110.410156 552.921875 124.660156 C 552.921875 132.074219 556.484375 138.3125 567.460938 142.472656 C 552.324219 138.3125 547.28125 131.496094 547.28125 122.890625 " clip-rule="nonzero"></path></clipPath><clipPath id="bc44719183"><path d="M 0.078125 0.71875 L 20.480469 0.71875 L 20.480469 82.558594 L 0.078125 82.558594 Z M 0.078125 0.71875 " clip-rule="nonzero"></path></clipPath><clipPath id="7b294d37f2"><path d="M 0.300781 62.867188 C 0.300781 48.332031 14.550781 29.632812 14.550781 15.074219 C 14.550781 9.429688 12.472656 4.671875 7.425781 0.820312 C 16.632812 4.980469 19.882812 10.914062 19.882812 17.75 C 19.882812 32 5.921875 50.410156 5.921875 64.660156 C 5.921875 72.074219 9.484375 78.3125 20.460938 82.472656 C 5.324219 78.3125 0.28125 71.496094 0.28125 62.890625 " clip-rule="nonzero"></path></clipPath><clipPath id="7a20a62a21"><rect x="0" width="21" y="0" height="83"></rect></clipPath><clipPath id="72b2ac1ca9"><path d="M 559.917969 58 L 594.945312 58 L 594.945312 128 L 559.917969 128 Z M 559.917969 58 " clip-rule="nonzero"></path></clipPath><clipPath id="f41e3e47fc"><path d="M 583.171875 58.535156 C 589.269531 67.886719 591.699219 84.730469 586.984375 98.835938 C 582.308594 112.859375 570.425781 124.269531 559.964844 127.996094 C 575.453125 125.753906 587.703125 114.777344 592.523438 100.382812 C 593.945312 96.097656 594.683594 91.648438 594.707031 87.222656 L 594.707031 86.6875 C 594.644531 76.390625 590.792969 66.21875 583.152344 58.535156 Z M 583.171875 58.535156 " clip-rule="nonzero"></path></clipPath><clipPath id="14b94d9ae9"><path d="M 0.917969 0.320312 L 35.839844 0.320312 L 35.839844 70 L 0.917969 70 Z M 0.917969 0.320312 " clip-rule="nonzero"></path></clipPath><clipPath id="86d415a195"><path d="M 24.171875 0.535156 C 30.269531 9.886719 32.699219 26.730469 27.984375 40.835938 C 23.308594 54.859375 11.425781 66.269531 0.964844 69.996094 C 16.453125 67.753906 28.703125 56.777344 33.523438 42.382812 C 34.945312 38.097656 35.683594 33.648438 35.707031 29.222656 L 35.707031 28.6875 C 35.644531 18.390625 31.792969 8.21875 24.152344 0.535156 Z M 24.171875 0.535156 " clip-rule="nonzero"></path></clipPath><clipPath id="979d4ea32d"><rect x="0" width="36" y="0" height="70"></rect></clipPath><clipPath id="67fa119a3c"><path d="M 509 58 L 544 58 L 544 128 L 509 128 Z M 509 58 " clip-rule="nonzero"></path></clipPath><clipPath id="e3f4691961"><path d="M 543.820312 127.996094 C 528.335938 125.753906 516.082031 114.777344 511.261719 100.382812 C 506.445312 85.988281 509.59375 69.65625 520.632812 58.535156 C 514.539062 67.886719 512.105469 84.730469 516.824219 98.835938 C 521.496094 112.859375 533.359375 124.269531 543.839844 127.996094 " clip-rule="nonzero"></path></clipPath><clipPath id="3390f8bd31"><path d="M 0 0.320312 L 34.960938 0.320312 L 34.960938 70 L 0 70 Z M 0 0.320312 " clip-rule="nonzero"></path></clipPath><clipPath id="d0bae6790c"><path d="M 34.820312 69.996094 C 19.335938 67.753906 7.082031 56.777344 2.261719 42.382812 C -2.554688 27.988281 0.59375 11.65625 11.632812 0.535156 C 5.539062 9.886719 3.105469 26.730469 7.824219 40.835938 C 12.496094 54.859375 24.359375 66.269531 34.839844 69.996094 " clip-rule="nonzero"></path></clipPath><clipPath id="a4c5b50e40"><rect x="0" width="35" y="0" height="70"></rect></clipPath><clipPath id="26386d252e"><rect x="0" width="606" y="0" height="389"></rect></clipPath></defs><g clip-path="url(#c945119325)"><path fill="#e7e2d8" d="M 371.722656 11.804688 C 173.265625 11.804688 11.804688 173.265625 11.804688 371.722656 C 11.804688 570.179688 173.265625 731.640625 371.722656 731.640625 C 570.179688 731.640625 731.640625 570.179688 731.640625 371.722656 C 731.640625 173.265625 570.179688 11.804688 371.722656 11.804688 Z M 371.722656 11.804688 " fill-opacity="1" fill-rule="nonzero"></path></g><g transform="matrix(1, 0, 0, 1, 69, 162)"><g clip-path="url(#26386d252e)"><g clip-path="url(#23913df2c1)"><g transform="matrix(1, 0, 0, 1, 120, 296)"><g clip-path="url(#1a978a457a)"><g clip-path="url(#c62aff9b72)"><path fill="#231f20" d="M 0.183594 0.828125 L 71.773438 0.828125 L 71.773438 65.820312 L 0.183594 65.820312 Z M 0.183594 0.828125 " fill-opacity="1" fill-rule="nonzero"></path></g></g></g></g><g clip-path="url(#44a062f535)"><g clip-path="url(#bea5306ff8)"><g transform="matrix(1, 0, 0, 1, 241, 315)"><g clip-path="url(#0e155326ae)"><g clip-path="url(#f346b36170)"><g clip-path="url(#d1b40e7f9b)"><rect x="-583" width="1296" fill="#231f20" y="-749.999998" height="1295.999991" fill-opacity="1"></rect></g></g></g></g></g></g><g clip-path="url(#8224e01248)"><g clip-path="url(#7a5df73a08)"><g transform="matrix(1, 0, 0, 1, 224, 262)"><g clip-path="url(#96c21a0637)"><g clip-path="url(#fc1f648a32)"><g clip-path="url(#06b1b79a59)"><rect x="-566" width="1296" fill="#231f20" y="-696.999998" height="1295.999991" fill-opacity="1"></rect></g></g></g></g></g></g><g clip-path="url(#04e9809c36)"><g transform="matrix(1, 0, 0, 1, 317, 262)"><g clip-path="url(#addbf49164)"><g clip-path="url(#4ec488a17c)"><rect x="-659" width="1296" fill="#231f20" y="-696.999998" height="1295.999991" fill-opacity="1"></rect></g></g></g></g><g clip-path="url(#6396cf81c4)"><g clip-path="url(#0b4c24695d)"><g transform="matrix(1, 0, 0, 1, 353, 292)"><g clip-path="url(#ba9c173dc3)"><g clip-path="url(#834f5e2ed0)"><g clip-path="url(#1cd274805c)"><rect x="-695" width="1296" fill="#231f20" y="-726.999998" height="1295.999991" fill-opacity="1"></rect></g></g></g></g></g></g><g clip-path="url(#39bcacc8ca)"><g clip-path="url(#f388f8c7e1)"><g transform="matrix(1, 0, 0, 1, 492, 294)"><g clip-path="url(#e4b5a18ee1)"><g clip-path="url(#ab16bc3d57)"><g clip-path="url(#301d1a2423)"><rect x="-834" width="1296" fill="#231f20" y="-728.999998" height="1295.999991" fill-opacity="1"></rect></g></g></g></g></g></g><g clip-path="url(#cd8323db6c)"><g clip-path="url(#22cbd81f19)"><g transform="matrix(1, 0, 0, 1, 447, 294)"><g clip-path="url(#f629d3dae5)"><g clip-path="url(#abeb6d6b18)"><g clip-path="url(#24d1e61031)"><rect x="-789" width="1296" fill="#231f20" y="-728.999998" height="1295.999991" fill-opacity="1"></rect></g></g></g></g></g></g><g clip-path="url(#39eaaf1ee5)"><g clip-path="url(#491734e8eb)"><g transform="matrix(1, 0, 0, 1, 10, 113)"><g clip-path="url(#c51a3c16fb)"><g clip-path="url(#1fbb128722)"><g clip-path="url(#75445d0231)"><rect x="-352" width="1296" fill="#231f20" y="-547.999998" height="1295.999991" fill-opacity="1"></rect></g></g></g></g></g></g><g clip-path="url(#6d8caa7500)"><g clip-path="url(#c40c2ff22f)"><g transform="matrix(1, 0, 0, 1, 118, 146)"><g clip-path="url(#6164caf971)"><g clip-path="url(#4be018492a)"><g clip-path="url(#bdc1f4b459)"><rect x="-460" width="1296" fill="#231f20" y="-580.999998" height="1295.999991" fill-opacity="1"></rect></g></g></g></g></g></g><g clip-path="url(#1ccd64a846)"><g clip-path="url(#b9c7bf104f)"><g transform="matrix(1, 0, 0, 1, 275, 148)"><g clip-path="url(#8ec05a09d5)"><g clip-path="url(#9c952218ea)"><g clip-path="url(#af07229649)"><rect x="-617" width="1296" fill="#231f20" y="-582.999998" height="1295.999991" fill-opacity="1"></rect></g></g></g></g></g></g><g clip-path="url(#d5580e81dd)"><g clip-path="url(#316dd38bfb)"><g transform="matrix(1, 0, 0, 1, 215, 148)"><g clip-path="url(#86ad4d53e8)"><g clip-path="url(#7743c782d2)"><g clip-path="url(#50623f3b1c)"><rect x="-557" width="1296" fill="#231f20" y="-582.999998" height="1295.999991" fill-opacity="1"></rect></g></g></g></g></g></g><g clip-path="url(#bc141fabf2)"><g clip-path="url(#a59713add8)"><g transform="matrix(1, 0, 0, 1, 333, 146)"><g clip-path="url(#c8fd92a4d4)"><g clip-path="url(#1a9c2fe8bf)"><g clip-path="url(#b49cdcc288)"><rect x="-675" width="1296" fill="#231f20" y="-580.999998" height="1295.999991" fill-opacity="1"></rect></g></g></g></g></g></g><g clip-path="url(#87451ca30b)"><g transform="matrix(1, 0, 0, 1, 317, 148)"><g clip-path="url(#433e7bab58)"><g clip-path="url(#0f6c2c89a1)"><rect x="-659" width="1296" fill="#231f20" y="-582.999998" height="1295.999991" fill-opacity="1"></rect></g></g></g></g><g clip-path="url(#9f059a73f1)"><g clip-path="url(#d202e5dc06)"><g transform="matrix(1, 0, 0, 1, 412, 146)"><g clip-path="url(#e3de48fbb7)"><g clip-path="url(#b5f946dc32)"><g clip-path="url(#e0f6844f9f)"><rect x="-754" width="1296" fill="#231f20" y="-580.999998" height="1295.999991" fill-opacity="1"></rect></g></g></g></g></g></g><g clip-path="url(#65dd7599d1)"><g clip-path="url(#1d2c299af1)"><g transform="matrix(1, 0, 0, 1, 526, 11)"><g clip-path="url(#d3deab878b)"><g clip-path="url(#0571c6473d)"><g clip-path="url(#83b016595e)"><rect x="-868" width="1296" fill="#e6c15a" y="-445.999998" height="1295.999991" fill-opacity="1"></rect></g></g></g></g></g></g><g clip-path="url(#fa2f44f3c5)"><g clip-path="url(#1e91865d26)"><g transform="matrix(1, 0, 0, 1, 547, 60)"><g clip-path="url(#7a20a62a21)"><g clip-path="url(#bc44719183)"><g clip-path="url(#7b294d37f2)"><rect x="-889" width="1296" fill="#e6c15a" y="-494.999998" height="1295.999991" fill-opacity="1"></rect></g></g></g></g></g></g><g clip-path="url(#72b2ac1ca9)"><g clip-path="url(#f41e3e47fc)"><g transform="matrix(1, 0, 0, 1, 559, 58)"><g clip-path="url(#979d4ea32d)"><g clip-path="url(#14b94d9ae9)"><g clip-path="url(#86d415a195)"><rect x="-901" width="1296" fill="#e6c15a" y="-492.999998" height="1295.999991" fill-opacity="1"></rect></g></g></g></g></g></g><g clip-path="url(#67fa119a3c)"><g clip-path="url(#e3f4691961)"><g transform="matrix(1, 0, 0, 1, 509, 58)"><g clip-path="url(#a4c5b50e40)"><g clip-path="url(#3390f8bd31)"><g clip-path="url(#d0bae6790c)"><rect x="-851" width="1296" fill="#e6c15a" y="-492.999998" height="1295.999991" fill-opacity="1"></rect></g></g></g></g></g></g></g></g></svg>