<svg xmlns="http://www.w3.org/2000/svg" xmlns:xlink="http://www.w3.org/1999/xlink" width="732.50" zoomAndPan="magnify" viewBox="8.75 425.75 732.50 100.25" height="100.25" preserveAspectRatio="xMidYMid meet" version="1.0"><defs><filter x="0%" y="0%" width="100%" height="100%" id="57bad462bd"><feColorMatrix values="0 0 0 0 1 0 0 0 0 1 0 0 0 0 1 0 0 0 1 0" color-interpolation-filters="sRGB"></feColorMatrix></filter><filter x="0%" y="0%" width="100%" height="100%" id="ec40d28854"><feColorMatrix values="0 0 0 0 1 0 0 0 0 1 0 0 0 0 1 0.2126 0.7152 0.0722 0 0" color-interpolation-filters="sRGB"></feColorMatrix></filter><clipPath id="5bcdf14d9b"><path d="M 12 429.769531 L 85 429.769531 L 85 522 L 12 522 Z M 12 429.769531 " clip-rule="nonzero"></path></clipPath><clipPath id="77a3bed228"><path d="M 50.089844 468.164062 C 36.609375 464.027344 23.871094 460.148438 23.871094 450.0625 C 23.871094 439.671875 36.585938 433.46875 48.863281 433.46875 C 59.5625 433.46875 72.992188 438.421875 75.699219 452.335938 L 76.207031 454.992188 L 76.335938 452.285156 C 76.539062 447.460938 74.878906 443.144531 71.355469 439.46875 C 65.664062 433.546875 55.296875 429.84375 44.269531 429.84375 C 29.179688 429.84375 13.941406 437.019531 13.941406 453 C 13.941406 469.800781 31.632812 476.234375 47.257812 481.925781 C 60.609375 486.777344 73.195312 491.371094 73.195312 501.507812 C 73.195312 512.410156 58.644531 518.101562 44.242188 518.101562 C 33.011719 518.101562 23.234375 514.707031 18.074219 508.988281 C 14.808594 505.363281 13.429688 500.945312 13.964844 495.867188 L 13.328125 495.761719 C 12.945312 497.398438 12.714844 498.777344 12.714844 500.28125 C 12.714844 514.042969 30.867188 521.472656 47.972656 521.472656 C 57.597656 521.472656 66.480469 519.328125 73.042969 515.394531 C 80.597656 510.878906 84.582031 504.289062 84.582031 496.324219 C 84.582031 478.710938 66.226562 473.09375 50.066406 468.140625 " clip-rule="nonzero"></path></clipPath><clipPath id="a8f5c76349"><path d="M 0.480469 0.839844 L 72.71875 0.839844 L 72.71875 92.519531 L 0.480469 92.519531 Z M 0.480469 0.839844 " clip-rule="nonzero"></path></clipPath><clipPath id="588c01e54d"><path d="M 38.089844 39.164062 C 24.609375 35.027344 11.871094 31.148438 11.871094 21.0625 C 11.871094 10.671875 24.585938 4.46875 36.863281 4.46875 C 47.5625 4.46875 60.992188 9.421875 63.699219 23.335938 L 64.207031 25.992188 L 64.335938 23.285156 C 64.539062 18.460938 62.878906 14.144531 59.355469 10.46875 C 53.664062 4.546875 43.296875 0.84375 32.269531 0.84375 C 17.179688 0.84375 1.941406 8.019531 1.941406 24 C 1.941406 40.800781 19.632812 47.234375 35.257812 52.925781 C 48.609375 57.777344 61.195312 62.371094 61.195312 72.507812 C 61.195312 83.410156 46.644531 89.101562 32.242188 89.101562 C 21.011719 89.101562 11.234375 85.707031 6.074219 79.988281 C 2.808594 76.363281 1.429688 71.945312 1.964844 66.867188 L 1.328125 66.761719 C 0.945312 68.398438 0.714844 69.777344 0.714844 71.28125 C 0.714844 85.042969 18.867188 92.472656 35.972656 92.472656 C 45.597656 92.472656 54.480469 90.328125 61.042969 86.394531 C 68.597656 81.878906 72.582031 75.289062 72.582031 67.324219 C 72.582031 49.710938 54.226562 44.09375 38.066406 39.140625 " clip-rule="nonzero"></path></clipPath><clipPath id="f7763a39a2"><rect x="0" width="73" y="0" height="93"></rect></clipPath><clipPath id="04d876c6f3"><path d="M 94.023438 454 L 168 454 L 168 520 L 94.023438 520 Z M 94.023438 454 " clip-rule="nonzero"></path></clipPath><clipPath id="8fea9a1bb0"><path d="M 158.390625 515.90625 C 154.585938 515.90625 153.769531 511.054688 153.769531 506.972656 L 153.769531 487.824219 C 153.769531 470.742188 150.398438 454.914062 126.042969 454.914062 C 114.785156 454.914062 104.75 462.546875 102.148438 473.066406 L 102.453125 473.144531 L 102.148438 473.144531 C 102.148438 473.21875 102.121094 473.320312 102.09375 473.425781 C 102.070312 473.550781 102.019531 473.707031 102.019531 473.882812 L 102.65625 473.882812 C 102.65625 473.808594 102.683594 473.707031 102.707031 473.578125 C 102.734375 473.449219 102.785156 473.320312 102.785156 473.167969 C 104.238281 467.859375 110.902344 457.875 125.6875 457.875 C 133.421875 457.875 138.117188 460.734375 140.519531 466.886719 C 142.664062 472.402344 142.664062 479.730469 142.664062 487.464844 L 142.664062 489.839844 C 137.785156 483.867188 130 480.445312 121.140625 480.445312 C 103.015625 480.445312 94.894531 490.835938 94.894531 501.125 C 94.894531 510.265625 101.535156 519.964844 113.863281 519.964844 C 123.285156 519.964844 133.957031 514.246094 141.769531 505.03125 L 141.335938 504.570312 C 132.9375 511.488281 125.710938 514.988281 119.8125 514.988281 C 112.921875 514.988281 105.925781 509.703125 105.925781 499.617188 C 105.925781 491.167969 111.667969 482.667969 124.484375 482.667969 C 131.582031 482.667969 138.375 486.316406 142.6875 492.445312 L 142.6875 507.277344 C 142.6875 512.84375 145.625 519.328125 153.871094 519.328125 C 158.925781 519.328125 163.625 516.671875 166.125 512.382812 L 167.375 510.238281 L 165.640625 511.976562 C 163.265625 514.347656 160.507812 515.828125 158.464844 515.828125 " clip-rule="nonzero"></path></clipPath><clipPath id="4e310cbf3d"><path d="M 0.800781 0.800781 L 73.519531 0.800781 L 73.519531 66 L 0.800781 66 Z M 0.800781 0.800781 " clip-rule="nonzero"></path></clipPath><clipPath id="29781203a0"><path d="M 64.390625 61.90625 C 60.585938 61.90625 59.769531 57.054688 59.769531 52.972656 L 59.769531 33.824219 C 59.769531 16.742188 56.398438 0.914062 32.042969 0.914062 C 20.785156 0.914062 10.75 8.546875 8.148438 19.066406 L 8.453125 19.144531 L 8.148438 19.144531 C 8.148438 19.21875 8.121094 19.320312 8.09375 19.425781 C 8.070312 19.550781 8.019531 19.707031 8.019531 19.882812 L 8.65625 19.882812 C 8.65625 19.808594 8.683594 19.707031 8.707031 19.578125 C 8.734375 19.449219 8.785156 19.320312 8.785156 19.167969 C 10.238281 13.859375 16.902344 3.875 31.6875 3.875 C 39.421875 3.875 44.117188 6.734375 46.519531 12.886719 C 48.664062 18.402344 48.664062 25.730469 48.664062 33.464844 L 48.664062 35.839844 C 43.785156 29.867188 36 26.445312 27.140625 26.445312 C 9.015625 26.445312 0.894531 36.835938 0.894531 47.125 C 0.894531 56.265625 7.535156 65.964844 19.863281 65.964844 C 29.285156 65.964844 39.957031 60.246094 47.769531 51.03125 L 47.335938 50.570312 C 38.9375 57.488281 31.710938 60.988281 25.8125 60.988281 C 18.921875 60.988281 11.925781 55.703125 11.925781 45.617188 C 11.925781 37.167969 17.667969 28.667969 30.484375 28.667969 C 37.582031 28.667969 44.375 32.316406 48.6875 38.445312 L 48.6875 53.277344 C 48.6875 58.84375 51.625 65.328125 59.871094 65.328125 C 64.925781 65.328125 69.625 62.671875 72.125 58.382812 L 73.375 56.238281 L 71.640625 57.976562 C 69.265625 60.347656 66.507812 61.828125 64.464844 61.828125 " clip-rule="nonzero"></path></clipPath><clipPath id="9b0e8c72e1"><rect x="0" width="74" y="0" height="66"></rect></clipPath><clipPath id="324625a456"><path d="M 169 456 L 240 456 L 240 520 L 169 520 Z M 169 456 " clip-rule="nonzero"></path></clipPath><clipPath id="936016957b"><path d="M 230.613281 515.90625 C 227.628906 515.90625 225.996094 512.742188 225.996094 506.972656 L 225.996094 456.269531 L 214.734375 456.269531 L 214.734375 505.820312 L 213.664062 508.195312 C 211.238281 513.480469 206.207031 516.035156 198.269531 516.035156 C 182.386719 516.035156 180.191406 501.125 180.191406 484.988281 L 180.191406 456.269531 L 169.0625 456.269531 L 169.0625 482.769531 C 169.0625 497.550781 169.0625 519.863281 197.144531 519.863281 C 204.21875 519.863281 212.589844 515.828125 214.25 508.375 L 214.734375 506.203125 L 214.734375 507.328125 C 214.734375 512.894531 217.671875 519.378906 225.917969 519.378906 C 230.972656 519.378906 235.824219 516.648438 238.300781 512.433594 L 239.550781 510.289062 L 237.816406 512.027344 C 235.441406 514.398438 232.683594 515.882812 230.640625 515.882812 " clip-rule="nonzero"></path></clipPath><clipPath id="19bd332eda"><path d="M 0 0.238281 L 70.761719 0.238281 L 70.761719 64 L 0 64 Z M 0 0.238281 " clip-rule="nonzero"></path></clipPath><clipPath id="4e0f6de6e9"><path d="M 61.613281 59.90625 C 58.628906 59.90625 56.996094 56.742188 56.996094 50.972656 L 56.996094 0.269531 L 45.734375 0.269531 L 45.734375 49.820312 L 44.664062 52.195312 C 42.238281 57.480469 37.207031 60.035156 29.269531 60.035156 C 13.386719 60.035156 11.191406 45.125 11.191406 28.988281 L 11.191406 0.269531 L 0.0625 0.269531 L 0.0625 26.769531 C 0.0625 41.550781 0.0625 63.863281 28.144531 63.863281 C 35.21875 63.863281 43.589844 59.828125 45.25 52.375 L 45.734375 50.203125 L 45.734375 51.328125 C 45.734375 56.894531 48.671875 63.378906 56.917969 63.378906 C 61.972656 63.378906 66.824219 60.648438 69.300781 56.433594 L 70.550781 54.289062 L 68.816406 56.027344 C 66.441406 58.398438 63.683594 59.882812 61.640625 59.882812 " clip-rule="nonzero"></path></clipPath><clipPath id="cf480bf8ae"><rect x="0" width="71" y="0" height="64"></rect></clipPath><clipPath id="e30c115cc7"><path d="M 247.210938 456.269531 L 258.46875 456.269531 L 258.46875 518.636719 L 247.210938 518.636719 Z M 247.210938 456.269531 " clip-rule="nonzero"></path></clipPath><clipPath id="56b69f3bfc"><path d="M 0.210938 0.269531 L 11.46875 0.269531 L 11.46875 62.636719 L 0.210938 62.636719 Z M 0.210938 0.269531 " clip-rule="nonzero"></path></clipPath><clipPath id="9f266037a9"><rect x="0" width="12" y="0" height="63"></rect></clipPath><clipPath id="bb46cf0c91"><path d="M 259 455 L 319 455 L 319 520 L 259 520 Z M 259 455 " clip-rule="nonzero"></path></clipPath><clipPath id="727cc325bf"><path d="M 309.503906 515.90625 C 305.675781 515.90625 304.882812 511.054688 304.882812 506.972656 L 304.882812 494.28125 C 304.910156 482.769531 304.933594 469.695312 297.121094 461.882812 C 292.527344 457.289062 285.835938 455.042969 276.671875 455.042969 C 270.59375 455.042969 262.757812 457.035156 259.003906 462.597656 L 259.515625 462.984375 C 260.640625 461.707031 264.058594 457.773438 275.574219 457.773438 C 293.625 457.773438 293.625 478.429688 293.625 492.085938 C 293.625 493.109375 293.625 494.050781 293.625 494.972656 L 293.625 507.328125 C 293.625 512.894531 296.558594 519.378906 304.804688 519.378906 C 309.859375 519.378906 314.710938 516.648438 317.1875 512.433594 L 318.4375 510.289062 L 316.703125 512.027344 C 314.328125 514.398438 311.570312 515.882812 309.53125 515.882812 " clip-rule="nonzero"></path></clipPath><clipPath id="3f08442d4e"><path d="M 0 0.0390625 L 59.480469 0.0390625 L 59.480469 64.601562 L 0 64.601562 Z M 0 0.0390625 " clip-rule="nonzero"></path></clipPath><clipPath id="716f731a58"><path d="M 50.503906 60.90625 C 46.675781 60.90625 45.882812 56.054688 45.882812 51.972656 L 45.882812 39.28125 C 45.910156 27.769531 45.933594 14.695312 38.121094 6.882812 C 33.527344 2.289062 26.835938 0.0429688 17.671875 0.0429688 C 11.59375 0.0429688 3.757812 2.035156 0.00390625 7.597656 L 0.515625 7.984375 C 1.640625 6.707031 5.058594 2.773438 16.574219 2.773438 C 34.625 2.773438 34.625 23.429688 34.625 37.085938 C 34.625 38.109375 34.625 39.050781 34.625 39.972656 L 34.625 52.328125 C 34.625 57.894531 37.558594 64.378906 45.804688 64.378906 C 50.859375 64.378906 55.710938 61.648438 58.1875 57.433594 L 59.4375 55.289062 L 57.703125 57.027344 C 55.328125 59.398438 52.570312 60.882812 50.53125 60.882812 " clip-rule="nonzero"></path></clipPath><clipPath id="e4d3ce8645"><rect x="0" width="60" y="0" height="65"></rect></clipPath><clipPath id="8542b33396"><path d="M 319.378906 454 L 392.507812 454 L 392.507812 520 L 319.378906 520 Z M 319.378906 454 " clip-rule="nonzero"></path></clipPath><clipPath id="fdf7723766"><path d="M 383.210938 515.90625 C 379.40625 515.90625 378.589844 511.054688 378.589844 506.972656 L 378.589844 487.824219 C 378.589844 470.742188 375.21875 454.914062 350.863281 454.914062 C 339.628906 454.914062 329.570312 462.546875 326.964844 473.066406 L 327.273438 473.144531 L 326.964844 473.144531 C 326.964844 473.21875 326.941406 473.320312 326.914062 473.425781 C 326.890625 473.550781 326.839844 473.707031 326.839844 473.882812 L 327.476562 473.882812 C 327.476562 473.808594 327.503906 473.707031 327.527344 473.578125 C 327.554688 473.449219 327.605469 473.320312 327.605469 473.167969 C 329.058594 467.859375 335.722656 457.875 350.503906 457.875 C 358.242188 457.875 362.9375 460.734375 365.339844 466.886719 C 367.484375 472.402344 367.484375 479.730469 367.484375 487.464844 L 367.484375 489.816406 C 362.605469 483.839844 354.820312 480.417969 345.960938 480.417969 C 327.835938 480.417969 319.714844 490.808594 319.714844 501.097656 C 319.714844 510.238281 326.355469 519.941406 338.683594 519.941406 C 348.105469 519.941406 358.804688 514.222656 366.589844 505.003906 L 366.15625 504.546875 C 357.757812 511.464844 350.53125 514.960938 344.632812 514.960938 C 337.742188 514.960938 330.746094 509.675781 330.746094 499.59375 C 330.746094 491.140625 336.488281 482.640625 349.304688 482.640625 C 356.402344 482.640625 363.195312 486.292969 367.507812 492.417969 L 367.507812 507.25 C 367.507812 512.816406 370.445312 519.300781 378.691406 519.300781 C 383.746094 519.300781 388.445312 516.648438 390.945312 512.359375 L 392.195312 510.214844 L 390.460938 511.949219 C 388.085938 514.324219 385.328125 515.804688 383.285156 515.804688 " clip-rule="nonzero"></path></clipPath><clipPath id="20f013b781"><path d="M 0.679688 0.800781 L 73.398438 0.800781 L 73.398438 66 L 0.679688 66 Z M 0.679688 0.800781 " clip-rule="nonzero"></path></clipPath><clipPath id="caaf6d9b93"><path d="M 64.210938 61.90625 C 60.40625 61.90625 59.589844 57.054688 59.589844 52.972656 L 59.589844 33.824219 C 59.589844 16.742188 56.21875 0.914062 31.863281 0.914062 C 20.628906 0.914062 10.570312 8.546875 7.964844 19.066406 L 8.273438 19.144531 L 7.964844 19.144531 C 7.964844 19.21875 7.941406 19.320312 7.914062 19.425781 C 7.890625 19.550781 7.839844 19.707031 7.839844 19.882812 L 8.476562 19.882812 C 8.476562 19.808594 8.503906 19.707031 8.527344 19.578125 C 8.554688 19.449219 8.605469 19.320312 8.605469 19.167969 C 10.058594 13.859375 16.722656 3.875 31.503906 3.875 C 39.242188 3.875 43.9375 6.734375 46.339844 12.886719 C 48.484375 18.402344 48.484375 25.730469 48.484375 33.464844 L 48.484375 35.816406 C 43.605469 29.839844 35.820312 26.417969 26.960938 26.417969 C 8.835938 26.417969 0.714844 36.808594 0.714844 47.097656 C 0.714844 56.238281 7.355469 65.941406 19.683594 65.941406 C 29.105469 65.941406 39.804688 60.222656 47.589844 51.003906 L 47.15625 50.546875 C 38.757812 57.464844 31.53125 60.960938 25.632812 60.960938 C 18.742188 60.960938 11.746094 55.675781 11.746094 45.59375 C 11.746094 37.140625 17.488281 28.640625 30.304688 28.640625 C 37.402344 28.640625 44.195312 32.292969 48.507812 38.417969 L 48.507812 53.25 C 48.507812 58.816406 51.445312 65.300781 59.691406 65.300781 C 64.746094 65.300781 69.445312 62.648438 71.945312 58.359375 L 73.195312 56.214844 L 71.460938 57.949219 C 69.085938 60.324219 66.328125 61.804688 64.285156 61.804688 " clip-rule="nonzero"></path></clipPath><clipPath id="2c1c2a09f4"><rect x="0" width="74" y="0" height="66"></rect></clipPath><clipPath id="579e86b69f"><path d="M 428.398438 460.097656 L 432.484375 460.097656 L 432.484375 481.953125 L 428.398438 481.953125 Z M 403.964844 481.953125 L 456.914062 481.953125 L 456.914062 486.164062 L 403.964844 486.164062 Z M 428.398438 486.164062 L 432.484375 486.164062 L 432.484375 508.019531 L 428.398438 508.019531 Z M 428.398438 486.164062 " clip-rule="nonzero"></path></clipPath><clipPath id="58505fcb73"><path d="M 25.398438 0.0976562 L 29.484375 0.0976562 L 29.484375 21.953125 L 25.398438 21.953125 Z M 0.964844 21.953125 L 53.914062 21.953125 L 53.914062 26.164062 L 0.964844 26.164062 Z M 25.398438 26.164062 L 29.484375 26.164062 L 29.484375 48.019531 L 25.398438 48.019531 Z M 25.398438 26.164062 " clip-rule="nonzero"></path></clipPath><clipPath id="8494add595"><rect x="0" width="54" y="0" height="49"></rect></clipPath><clipPath id="36d59bac8e"><path d="M 328 164.117188 L 390 164.117188 L 390 316 L 328 316 Z M 328 164.117188 " clip-rule="nonzero"></path></clipPath><clipPath id="d99edcd110"><path d="M 375.421875 164.941406 C 382.238281 174.441406 383.335938 183.914062 380.324219 193.84375 C 372.511719 219.449219 337.410156 244.726562 329.621094 270.332031 C 325 285.496094 330.234375 300.226562 354.640625 315.648438 C 337.535156 302.449219 334.601562 289.554688 338.582031 276.511719 C 346.214844 251.414062 380.65625 226.523438 388.289062 201.425781 C 391.941406 189.402344 389.386719 177.199219 375.421875 164.96875 Z M 375.421875 164.941406 " clip-rule="nonzero"></path></clipPath><clipPath id="a2dd0e28b1"><path d="M 0 1 L 62 1 L 62 151.839844 L 0 151.839844 Z M 0 1 " clip-rule="nonzero"></path></clipPath><clipPath id="840cc8eed9"><path d="M 47.421875 0.941406 C 54.238281 10.441406 55.335938 19.914062 52.324219 29.84375 C 44.511719 55.449219 9.410156 80.726562 1.621094 106.332031 C -3 121.496094 2.234375 136.226562 26.640625 151.648438 C 9.535156 138.449219 6.601562 125.554688 10.582031 112.511719 C 18.214844 87.414062 52.65625 62.523438 60.289062 37.425781 C 63.941406 25.402344 61.386719 13.199219 47.421875 0.96875 Z M 47.421875 0.941406 " clip-rule="nonzero"></path></clipPath><clipPath id="32dc12c676"><rect x="0" width="62" y="0" height="152"></rect></clipPath><clipPath id="27ddcf340a"><path d="M 366 255.15625 L 404 255.15625 L 404 407 L 366 407 Z M 366 255.15625 " clip-rule="nonzero"></path></clipPath><clipPath id="52d1cbd566"><path d="M 366.460938 370.128906 C 366.460938 343.375 392.679688 308.960938 392.679688 282.203125 C 392.679688 271.8125 388.851562 263.082031 379.585938 255.984375 C 396.511719 263.617188 402.535156 274.542969 402.535156 287.128906 C 402.535156 313.351562 376.851562 347.203125 376.851562 373.449219 C 376.851562 387.105469 383.414062 398.570312 403.609375 406.230469 C 375.753906 398.570312 366.460938 386.007812 366.460938 370.179688 " clip-rule="nonzero"></path></clipPath><clipPath id="471c10332d"><path d="M 0.238281 1 L 37.679688 1 L 37.679688 151.320312 L 0.238281 151.320312 Z M 0.238281 1 " clip-rule="nonzero"></path></clipPath><clipPath id="017596a5ca"><path d="M 0.460938 115.128906 C 0.460938 88.375 26.679688 53.960938 26.679688 27.203125 C 26.679688 16.8125 22.851562 8.082031 13.585938 0.984375 C 30.511719 8.617188 36.535156 19.542969 36.535156 32.128906 C 36.535156 58.351562 10.851562 92.203125 10.851562 118.449219 C 10.851562 132.105469 17.414062 143.570312 37.609375 151.230469 C 9.753906 143.570312 0.460938 131.007812 0.460938 115.179688 " clip-rule="nonzero"></path></clipPath><clipPath id="2268037997"><rect x="0" width="38" y="0" height="152"></rect></clipPath><clipPath id="d1e7bad46f"><path d="M 389.523438 251 L 454 251 L 454 380 L 389.523438 380 Z M 389.523438 251 " clip-rule="nonzero"></path></clipPath><clipPath id="d9825e75a9"><path d="M 389.796875 379.550781 C 409.046875 372.707031 430.875 351.722656 439.503906 325.910156 C 448.183594 299.921875 443.714844 268.953125 432.484375 251.746094 C 452.78125 272.171875 458.550781 302.21875 449.714844 328.71875 C 440.882812 355.21875 418.3125 375.414062 389.820312 379.550781 " clip-rule="nonzero"></path></clipPath><clipPath id="7a785c6eec"><path d="M 0.761719 1 L 65 1 L 65 128.679688 L 0.761719 128.679688 Z M 0.761719 1 " clip-rule="nonzero"></path></clipPath><clipPath id="f10c634efb"><path d="M 0.796875 128.550781 C 20.046875 121.707031 41.875 100.722656 50.503906 74.910156 C 59.183594 48.921875 54.714844 17.953125 43.484375 0.746094 C 63.78125 21.171875 69.550781 51.21875 60.714844 77.71875 C 51.882812 104.21875 29.3125 124.414062 0.820312 128.550781 " clip-rule="nonzero"></path></clipPath><clipPath id="98ab215614"><rect x="0" width="65" y="0" height="129"></rect></clipPath><clipPath id="57fb20b8a2"><path d="M 296 251 L 361 251 L 361 380 L 296 380 Z M 296 251 " clip-rule="nonzero"></path></clipPath><clipPath id="93717173b7"><path d="M 360.054688 379.550781 C 331.535156 375.414062 308.992188 355.21875 300.160156 328.71875 C 291.328125 302.21875 297.070312 272.171875 317.367188 251.746094 C 306.132812 268.953125 301.664062 299.921875 310.347656 325.910156 C 318.976562 351.722656 340.804688 372.707031 360.054688 379.550781 " clip-rule="nonzero"></path></clipPath><clipPath id="ee06669d86"><path d="M 0 1 L 64.238281 1 L 64.238281 128.679688 L 0 128.679688 Z M 0 1 " clip-rule="nonzero"></path></clipPath><clipPath id="83a5fea29f"><path d="M 64.054688 128.550781 C 35.535156 124.414062 12.992188 104.21875 4.160156 77.71875 C -4.671875 51.21875 1.070312 21.171875 21.367188 0.746094 C 10.132812 17.953125 5.664062 48.921875 14.347656 74.910156 C 22.976562 100.722656 44.804688 121.707031 64.054688 128.550781 " clip-rule="nonzero"></path></clipPath><clipPath id="c1598c41bd"><rect x="0" width="65" y="0" height="129"></rect></clipPath><clipPath id="ece4baa6c8"><path d="M 73 555.375 L 677 555.375 L 677 598 L 73 598 Z M 73 555.375 " clip-rule="nonzero"></path></clipPath><mask id="eaf675e7bf"><g filter="url(#57bad462bd)"><g filter="url(#ec40d28854)" transform="matrix(0.240262, 0, 0, 0.244286, 72.686579, 555.373236)"><image x="0" y="0" width="2516" height="175" preserveAspectRatio="xMidYMid meet"></image></g></g></mask><clipPath id="557c02563f"><path d="M 482.253906 432.320312 L 539.917969 432.320312 L 539.917969 519.9375 L 482.253906 519.9375 Z M 482.253906 432.320312 " clip-rule="nonzero"></path></clipPath><clipPath id="80fd330b76"><path d="M 482.503906 432.570312 L 482.503906 519.628906 L 494.5 519.628906 L 494.5 435.175781 L 507.011719 435.175781 C 525.980469 435.175781 536.472656 438.46875 537.824219 440.792969 C 537.953125 441.046875 538.414062 441.25 539.179688 441.328125 L 539.613281 441.378906 L 537.902344 432.570312 Z M 482.503906 432.570312 " clip-rule="nonzero"></path></clipPath><clipPath id="285df0cf84"><path d="M 0.398438 0.480469 L 57.761719 0.480469 L 57.761719 87.839844 L 0.398438 87.839844 Z M 0.398438 0.480469 " clip-rule="nonzero"></path></clipPath><clipPath id="98e1a1db50"><path d="M 0.503906 0.570312 L 0.503906 87.628906 L 12.5 87.628906 L 12.5 3.175781 L 25.011719 3.175781 C 43.980469 3.175781 54.472656 6.46875 55.824219 8.792969 C 55.953125 9.046875 56.414062 9.25 57.179688 9.328125 L 57.613281 9.378906 L 55.902344 0.570312 Z M 0.503906 0.570312 " clip-rule="nonzero"></path></clipPath><clipPath id="eb82a9a94b"><rect x="0" width="58" y="0" height="88"></rect></clipPath><clipPath id="488132f50a"><path d="M 495.664062 473 L 531.425781 473 L 531.425781 482.386719 L 495.664062 482.386719 Z M 495.664062 473 " clip-rule="nonzero"></path></clipPath><clipPath id="a1975ed4fd"><path d="M 524.039062 479.113281 C 521.078125 479.113281 517.605469 477.632812 514.234375 476.175781 C 510.816406 474.695312 507.265625 473.191406 504.175781 473.191406 C 500.015625 473.191406 497.335938 475.921875 495.726562 481.820312 L 496.339844 482.023438 C 497.847656 478.039062 500.117188 476.175781 503.4375 476.175781 C 506.347656 476.175781 509.742188 477.632812 513.0625 479.0625 C 516.433594 480.492188 519.902344 481.996094 522.941406 481.996094 C 526.234375 481.996094 528.636719 480.234375 530.269531 476.636719 L 531.417969 474.109375 L 529.734375 476.328125 C 528.277344 478.246094 526.414062 479.164062 524.066406 479.164062 " clip-rule="nonzero"></path></clipPath><clipPath id="b688d48326"><path d="M 0.664062 0.0390625 L 36.425781 0.0390625 L 36.425781 9.160156 L 0.664062 9.160156 Z M 0.664062 0.0390625 " clip-rule="nonzero"></path></clipPath><clipPath id="0f5a46756f"><path d="M 29.039062 6.113281 C 26.078125 6.113281 22.605469 4.632812 19.234375 3.175781 C 15.816406 1.695312 12.265625 0.191406 9.175781 0.191406 C 5.015625 0.191406 2.335938 2.921875 0.726562 8.820312 L 1.339844 9.023438 C 2.847656 5.039062 5.117188 3.175781 8.4375 3.175781 C 11.347656 3.175781 14.742188 4.632812 18.0625 6.0625 C 21.433594 7.492188 24.902344 8.996094 27.941406 8.996094 C 31.234375 8.996094 33.636719 7.234375 35.269531 3.636719 L 36.417969 1.109375 L 34.734375 3.328125 C 33.277344 5.246094 31.414062 6.164062 29.066406 6.164062 " clip-rule="nonzero"></path></clipPath><clipPath id="c6db267b5d"><rect x="0" width="37" y="0" height="10"></rect></clipPath><clipPath id="97ebc6621e"><path d="M 553.859375 432.570312 L 565.117188 432.570312 L 565.117188 519.628906 L 553.859375 519.628906 Z M 553.859375 432.570312 " clip-rule="nonzero"></path></clipPath><clipPath id="a4f90b8898"><path d="M 0.859375 0.570312 L 12.117188 0.570312 L 12.117188 87.628906 L 0.859375 87.628906 Z M 0.859375 0.570312 " clip-rule="nonzero"></path></clipPath><clipPath id="fc2f5e9849"><rect x="0" width="13" y="0" height="88"></rect></clipPath><clipPath id="072e9d87b7"><path d="M 580.597656 455.566406 L 646.308594 455.566406 L 646.308594 521.726562 L 580.597656 521.726562 Z M 580.597656 455.566406 " clip-rule="nonzero"></path></clipPath><clipPath id="36518f84f9"><path d="M 618.984375 518.121094 C 603.03125 518.121094 591.898438 498.261719 591.898438 480.414062 C 591.898438 467.085938 597.976562 459.121094 608.109375 459.121094 C 620.875 459.121094 635.070312 474.644531 635.070312 496.957031 C 635.070312 510.207031 629.046875 518.121094 618.960938 518.121094 M 613.574219 455.90625 C 590.929688 455.90625 580.792969 472.371094 580.792969 488.6875 C 580.792969 505 590.929688 521.46875 613.574219 521.46875 C 636.140625 521.46875 646.226562 505 646.226562 488.6875 C 646.226562 472.371094 636.117188 455.90625 613.574219 455.90625 " clip-rule="nonzero"></path></clipPath><clipPath id="e02bf327a7"><path d="M 0.597656 0.761719 L 66.308594 0.761719 L 66.308594 66.519531 L 0.597656 66.519531 Z M 0.597656 0.761719 " clip-rule="nonzero"></path></clipPath><clipPath id="e6b5d5bf15"><path d="M 38.984375 63.121094 C 23.03125 63.121094 11.898438 43.261719 11.898438 25.414062 C 11.898438 12.085938 17.976562 4.121094 28.109375 4.121094 C 40.875 4.121094 55.070312 19.644531 55.070312 41.957031 C 55.070312 55.207031 49.046875 63.121094 38.960938 63.121094 M 33.574219 0.90625 C 10.929688 0.90625 0.792969 17.371094 0.792969 33.6875 C 0.792969 50 10.929688 66.46875 33.574219 66.46875 C 56.140625 66.46875 66.226562 50 66.226562 33.6875 C 66.226562 17.371094 56.117188 0.90625 33.574219 0.90625 " clip-rule="nonzero"></path></clipPath><clipPath id="4984ad4e98"><rect x="0" width="67" y="0" height="67"></rect></clipPath><clipPath id="b1438bc91f"><path d="M 687 457 L 737.5 457 L 737.5 519.9375 L 687 519.9375 Z M 687 457 " clip-rule="nonzero"></path></clipPath><clipPath id="c3febc5ce4"><path d="M 728.078125 457.257812 L 728.355469 457.742188 C 728.382812 457.769531 730.042969 460.707031 730.042969 465.480469 C 730.042969 467.957031 729.582031 470.636719 728.714844 473.265625 L 717.023438 504.566406 L 699.355469 457.257812 L 687.304688 457.257812 L 711.304688 519.425781 L 711.378906 519.628906 L 713.933594 519.628906 L 737.089844 457.691406 L 737.242188 457.257812 Z M 728.078125 457.257812 " clip-rule="nonzero"></path></clipPath><clipPath id="f11b1eae2f"><path d="M 0.121094 0.199219 L 50.28125 0.199219 L 50.28125 62.839844 L 0.121094 62.839844 Z M 0.121094 0.199219 " clip-rule="nonzero"></path></clipPath><clipPath id="4fed83fa14"><path d="M 41.078125 0.257812 L 41.355469 0.742188 C 41.382812 0.769531 43.042969 3.707031 43.042969 8.480469 C 43.042969 10.957031 42.582031 13.636719 41.714844 16.265625 L 30.023438 47.566406 L 12.355469 0.257812 L 0.304688 0.257812 L 24.304688 62.425781 L 24.378906 62.628906 L 26.933594 62.628906 L 50.089844 0.691406 L 50.242188 0.257812 Z M 41.078125 0.257812 " clip-rule="nonzero"></path></clipPath><clipPath id="69b054368e"><rect x="0" width="51" y="0" height="63"></rect></clipPath><clipPath id="455cf2b056"><path d="M 653.015625 457 L 692.351562 457 L 692.351562 519.9375 L 653.015625 519.9375 Z M 653.015625 457 " clip-rule="nonzero"></path></clipPath><clipPath id="6040258773"><path d="M 690.34375 467.46875 L 689.808594 466.933594 L 689.808594 467.699219 C 689.808594 467.828125 689.859375 467.957031 689.933594 468.082031 L 690.242188 468.082031 L 689.960938 468.210938 C 690.445312 469.410156 690.675781 471.070312 690.675781 473.164062 C 690.675781 477.453125 689.679688 485.394531 684.878906 498.847656 L 682.835938 504.566406 L 665.171875 457.285156 L 653.09375 457.285156 L 677.09375 519.449219 L 677.167969 519.65625 L 679.722656 519.65625 L 686.84375 499.691406 C 690.292969 489.835938 692.054688 481.84375 692.054688 475.871094 C 692.054688 472.78125 691.542969 470.152344 690.574219 468.007812 C 690.546875 467.699219 690.394531 467.523438 690.367188 467.496094 " clip-rule="nonzero"></path></clipPath><clipPath id="873dd1cb26"><path d="M 0.0390625 0.199219 L 39.160156 0.199219 L 39.160156 62.839844 L 0.0390625 62.839844 Z M 0.0390625 0.199219 " clip-rule="nonzero"></path></clipPath><clipPath id="9060b13af3"><path d="M 37.34375 10.46875 L 36.808594 9.933594 L 36.808594 10.699219 C 36.808594 10.828125 36.859375 10.957031 36.933594 11.082031 L 37.242188 11.082031 L 36.960938 11.210938 C 37.445312 12.410156 37.675781 14.070312 37.675781 16.164062 C 37.675781 20.453125 36.679688 28.394531 31.878906 41.847656 L 29.835938 47.566406 L 12.171875 0.285156 L 0.09375 0.285156 L 24.09375 62.449219 L 24.167969 62.65625 L 26.722656 62.65625 L 33.84375 42.691406 C 37.292969 32.835938 39.054688 24.84375 39.054688 18.871094 C 39.054688 15.78125 38.542969 13.152344 37.574219 11.007812 C 37.546875 10.699219 37.394531 10.523438 37.367188 10.496094 " clip-rule="nonzero"></path></clipPath><clipPath id="b7602c5cf7"><rect x="0" width="40" y="0" height="63"></rect></clipPath></defs><g clip-path="url(#5bcdf14d9b)"><g clip-path="url(#77a3bed228)"><g transform="matrix(1, 0, 0, 1, 12, 429)"><g clip-path="url(#f7763a39a2)"><g clip-path="url(#a8f5c76349)"><g clip-path="url(#588c01e54d)"><rect x="-177" width="1080" fill="#231f20" height="1079.999992" y="-593.999999" fill-opacity="1"></rect></g></g></g></g></g></g><g clip-path="url(#04d876c6f3)"><g clip-path="url(#8fea9a1bb0)"><g transform="matrix(1, 0, 0, 1, 94, 454)"><g clip-path="url(#9b0e8c72e1)"><g clip-path="url(#4e310cbf3d)"><g clip-path="url(#29781203a0)"><rect x="-259" width="1080" fill="#231f20" height="1079.999992" y="-618.999999" fill-opacity="1"></rect></g></g></g></g></g></g><g clip-path="url(#324625a456)"><g clip-path="url(#936016957b)"><g transform="matrix(1, 0, 0, 1, 169, 456)"><g clip-path="url(#cf480bf8ae)"><g clip-path="url(#19bd332eda)"><g clip-path="url(#4e0f6de6e9)"><rect x="-334" width="1080" fill="#231f20" height="1079.999992" y="-620.999999" fill-opacity="1"></rect></g></g></g></g></g></g><g clip-path="url(#e30c115cc7)"><g transform="matrix(1, 0, 0, 1, 247, 456)"><g clip-path="url(#9f266037a9)"><g clip-path="url(#56b69f3bfc)"><rect x="-412" width="1080" fill="#231f20" height="1079.999992" y="-620.999999" fill-opacity="1"></rect></g></g></g></g><g clip-path="url(#bb46cf0c91)"><g clip-path="url(#727cc325bf)"><g transform="matrix(1, 0, 0, 1, 259, 455)"><g clip-path="url(#e4d3ce8645)"><g clip-path="url(#3f08442d4e)"><g clip-path="url(#716f731a58)"><rect x="-424" width="1080" fill="#231f20" height="1079.999992" y="-619.999999" fill-opacity="1"></rect></g></g></g></g></g></g><g clip-path="url(#8542b33396)"><g clip-path="url(#fdf7723766)"><g transform="matrix(1, 0, 0, 1, 319, 454)"><g clip-path="url(#2c1c2a09f4)"><g clip-path="url(#20f013b781)"><g clip-path="url(#caaf6d9b93)"><rect x="-484" width="1080" fill="#231f20" height="1079.999992" y="-618.999999" fill-opacity="1"></rect></g></g></g></g></g></g><g clip-path="url(#579e86b69f)"><g transform="matrix(1, 0, 0, 1, 403, 460)"><g clip-path="url(#8494add595)"><g clip-path="url(#58505fcb73)"><rect x="-568" width="1080" fill="#231f20" height="1079.999992" y="-624.999999" fill-opacity="1"></rect></g></g></g></g><g clip-path="url(#36d59bac8e)"><g clip-path="url(#d99edcd110)"><g transform="matrix(1, 0, 0, 1, 328, 164)"><g clip-path="url(#32dc12c676)"><g clip-path="url(#a2dd0e28b1)"><g clip-path="url(#840cc8eed9)"><g transform="matrix(0.268802, 0, 0, 0.269169, -162.549377, 0.94335)"><image x="0" y="0" width="1438" height="560" preserveAspectRatio="xMidYMid meet"></image></g></g></g></g></g></g></g><g clip-path="url(#27ddcf340a)"><g clip-path="url(#52d1cbd566)"><g transform="matrix(1, 0, 0, 1, 366, 255)"><g clip-path="url(#2268037997)"><g clip-path="url(#471c10332d)"><g clip-path="url(#017596a5ca)"><g transform="matrix(0.268802, 0, 0, 0.269169, -173.868698, 0.983914)"><image x="0" y="0" width="1438" height="560" preserveAspectRatio="xMidYMid meet"></image></g></g></g></g></g></g></g><g clip-path="url(#d1e7bad46f)"><g clip-path="url(#d9825e75a9)"><g transform="matrix(1, 0, 0, 1, 389, 251)"><g clip-path="url(#98ab215614)"><g clip-path="url(#7a785c6eec)"><g clip-path="url(#f10c634efb)"><g transform="matrix(0.228326, 0, 0, 0.229193, -131.33001, 0.745886)"><image x="0" y="0" width="1438" height="560" preserveAspectRatio="xMidYMid meet"></image></g></g></g></g></g></g></g><g clip-path="url(#57fb20b8a2)"><g clip-path="url(#93717173b7)"><g transform="matrix(1, 0, 0, 1, 296, 251)"><g clip-path="url(#c1598c41bd)"><g clip-path="url(#ee06669d86)"><g clip-path="url(#83a5fea29f)"><g transform="matrix(0.228326, 0, 0, 0.229193, -131.992041, 0.745886)"><image x="0" y="0" width="1438" height="560" preserveAspectRatio="xMidYMid meet"></image></g></g></g></g></g></g></g><g clip-path="url(#ece4baa6c8)"><g mask="url(#eaf675e7bf)"><g transform="matrix(0.240262, 0, 0, 0.244286, 72.686579, 555.373236)"><image x="0" y="0" width="2516" height="175" preserveAspectRatio="xMidYMid meet"></image></g></g></g><g clip-path="url(#557c02563f)"><g clip-path="url(#80fd330b76)"><g transform="matrix(1, 0, 0, 1, 482, 432)"><g clip-path="url(#eb82a9a94b)"><g clip-path="url(#285df0cf84)"><g clip-path="url(#98e1a1db50)"><rect x="-647" width="1080" fill="#231f20" height="1079.999992" y="-596.999999" fill-opacity="1"></rect></g></g></g></g></g></g><g clip-path="url(#488132f50a)"><g clip-path="url(#a1975ed4fd)"><g transform="matrix(1, 0, 0, 1, 495, 473)"><g clip-path="url(#c6db267b5d)"><g clip-path="url(#b688d48326)"><g clip-path="url(#0f5a46756f)"><rect x="-660" width="1080" fill="#231f20" height="1079.999992" y="-637.999999" fill-opacity="1"></rect></g></g></g></g></g></g><g clip-path="url(#97ebc6621e)"><g transform="matrix(1, 0, 0, 1, 553, 432)"><g clip-path="url(#fc2f5e9849)"><g clip-path="url(#a4f90b8898)"><rect x="-718" width="1080" fill="#231f20" height="1079.999992" y="-596.999999" fill-opacity="1"></rect></g></g></g></g><g clip-path="url(#072e9d87b7)"><g clip-path="url(#36518f84f9)"><g transform="matrix(1, 0, 0, 1, 580, 455)"><g clip-path="url(#4984ad4e98)"><g clip-path="url(#e02bf327a7)"><g clip-path="url(#e6b5d5bf15)"><rect x="-745" width="1080" fill="#231f20" height="1079.999992" y="-619.999999" fill-opacity="1"></rect></g></g></g></g></g></g><g clip-path="url(#b1438bc91f)"><g clip-path="url(#c3febc5ce4)"><g transform="matrix(1, 0, 0, 1, 687, 457)"><g clip-path="url(#69b054368e)"><g clip-path="url(#f11b1eae2f)"><g clip-path="url(#4fed83fa14)"><rect x="-852" width="1080" fill="#231f20" height="1079.999992" y="-621.999999" fill-opacity="1"></rect></g></g></g></g></g></g><g clip-path="url(#455cf2b056)"><g clip-path="url(#6040258773)"><g transform="matrix(1, 0, 0, 1, 653, 457)"><g clip-path="url(#b7602c5cf7)"><g clip-path="url(#873dd1cb26)"><g clip-path="url(#9060b13af3)"><rect x="-818" width="1080" fill="#231f20" height="1079.999992" y="-621.999999" fill-opacity="1"></rect></g></g></g></g></g></g></svg>